<?xml version="1.0" standalone="no"?>
<!DOCTYPE svg PUBLIC "-//W3C//DTD SVG 1.0//EN"
"http://www.w3.org/TR/2001/REC-SVG-20010904/DTD/svg10.dtd">

<svg width="1220px" height="436px" viewBox="0 0 1220 436" version="1.0" xmlns="http://www.w3.org/2000/svg">

<g transform="translate(0,436)">
<g transform="scale(1,-1)">
<path d=" M 10.0 10.0 L 1210.0 10.0 L 1210.0 427.0 L 10.0 427.0 L 10.0 10.0 M 101.7 180.1 M 883.4 216.7 M 476.1 292.6 M 241.6 30.5 M 551.7 129.2 M 950.8 351.4 M 780.4 137.6 M 601.2 317.2 M 906.2 203.2 M 840.3 165.8 M 663.2 128.6 M 551.4 108.7 M 482.4 82.0 M 684.4 363.2 M 732.9 417.6 M 414.6 296.3 M 532.3 323.2 M 583.6 133.0 M 482.5 106.7 M 932.7 195.6 M 641.6 403.3 M 667.5 123.9 M 900.2 173.5 M 1060.4 375.6 M 732.4 131.5 M 580.5 328.0 M 488.9 309.9 M 305.8 300.4 M 609.5 291.3 M 622.3 293.7 M 585.6 286.3 M 721.5 184.0 M 724.6 188.0 M 748.1 198.8 M 551.7 129.2 M 603.4 36.6 M 551.7 129.2 M 663.2 128.6 M 988.3 298.5 M 19.0 346.9 M 19.0 346.9 M 551.7 129.2 M 551.7 129.2 M 526.2 126.5 M 462.9 98.2 M 551.7 129.2 M 532.3 323.2 M 258.7 251.2 M 271.1 307.1 M 242.2 301.6 M 84.9 331.7 M 64.7 356.8 M 414.7 256.2 M 486.4 271.7"
 style="fill:none; stroke:#b3b3da; stroke-opacity:1.0; stroke-width:0.8; " />

<path d=" M 308.7 26.4 L 306.4 22.2 L 303.6 16.6 L 297.1 12.9 L 291.3 10.0 L 265.8 10.0 L 276.1 17.6 L 285.9 24.6 L 293.8 29.7 L 302.7 33.9 L 308.7 35.8 L 317.6 37.7 L 328.8 42.3 L 341.4 47.9 L 352.6 53.5 L 363.8 61.0 L 372.7 65.2 L 381.1 68.5 L 389.5 70.3 L 400.7 74.5 L 409.1 79.2 L 409.5 79.6 L 411.2 78.2 L 415.9 74.3 L 417.0 75.0 L 423.6 78.3 L 431.5 83.9 L 440.2 91.8 L 441.2 91.0 L 446.3 87.5 L 447.2 86.6 L 440.4 75.0 L 436.2 67.1 L 430.5 59.9 L 427.0 63.8 L 421.3 69.6 L 400.2 61.5 L 382.5 51.2 L 373.6 47.5 L 367.1 44.2 L 359.1 40.4 L 353.1 37.2 L 345.1 33.4 L 313.9 29.2 L 311.1 28.3 L 308.7 26.4 z M 350.3 59.1 L 357.3 63.3 L 363.8 67.5 L 374.6 73.6 L 380.2 75.0 L 387.2 75.5 L 395.6 77.3 L 403.5 81.5 L 404.9 82.7 L 408.4 80.5 L 409.5 79.6 L 409.1 79.2 L 400.7 74.5 L 389.5 70.3 L 381.1 68.5 L 372.7 65.2 L 363.8 61.0 L 352.6 53.5 L 341.4 47.9 L 328.8 42.3 L 317.6 37.7 L 308.7 35.8 L 302.7 33.9 L 293.8 29.7 L 285.9 24.6 L 276.1 17.6 L 265.8 10.0 L 246.1 10.0 L 251.3 11.5 L 263.9 19.9 L 273.7 27.8 L 278.4 33.0 L 281.7 36.2 L 286.8 40.0 L 293.8 42.8 L 299.9 44.7 L 306.4 44.2 L 319.0 44.2 L 323.7 46.1 L 334.9 52.1 L 337.2 55.4 L 343.3 56.8 L 350.3 59.1 z M 154.9 386.8 L 163.2 380.6 L 166.8 378.3 L 170.7 376.2 L 181.4 372.9 L 202.2 367.7 L 209.6 365.2 L 216.1 362.2 L 221.1 359.8 L 227.6 357.3 L 233.3 356.0 L 249.4 352.6 L 265.8 347.6 L 282.1 342.5 L 292.9 338.9 L 295.9 338.0 L 304.2 335.5 L 313.7 333.7 L 324.9 332.4 L 328.7 331.8 L 336.8 329.9 L 340.9 328.8 L 346.3 322.7 L 345.5 322.3 L 341.8 322.0 L 338.3 322.1 L 331.6 322.6 L 316.6 325.6 L 307.4 328.1 L 290.5 333.8 L 275.7 338.0 L 275.7 338.0 L 272.7 338.9 L 271.0 339.7 L 264.3 340.4 L 256.8 342.2 L 251.6 345.8 L 244.8 349.8 L 237.0 351.7 L 229.2 352.9 L 223.2 354.9 L 214.9 357.4 L 204.8 360.1 L 196.0 363.6 L 186.8 366.6 L 164.3 373.3 L 156.5 375.4 L 148.8 379.1 L 142.1 382.9 L 136.4 385.8 L 135.3 385.8 L 127.0 387.1 L 120.2 387.6 L 114.1 388.4 L 105.1 390.4 L 96.9 394.2 L 79.7 403.0 L 68.7 407.9 L 54.8 413.7 L 46.4 415.8 L 39.0 427.0 L 76.7 427.0 L 78.0 425.4 L 82.2 418.4 L 87.3 411.4 L 90.4 408.5 L 96.1 405.5 L 105.0 403.0 L 112.7 400.1 L 120.6 396.9 L 127.1 395.3 L 136.4 395.2 L 146.3 391.7 L 154.9 386.8 z M 10.0 353.7 L 13.7 355.2 L 27.6 357.4 L 35.0 356.2 L 47.0 353.7 L 58.2 351.2 L 71.4 347.5 L 95.3 338.0 L 95.2 338.0 L 100.2 336.1 L 110.4 331.2 L 119.6 328.1 L 125.8 325.6 L 130.1 322.5 L 131.7 319.7 L 133.7 314.9 L 152.3 310.3 L 173.4 300.9 L 189.2 293.0 L 206.0 286.0 L 215.8 285.1 L 224.2 286.9 L 237.3 293.0 L 245.2 294.4 L 251.8 293.0 L 261.1 289.3 L 266.7 287.4 L 270.9 286.9 L 274.7 289.3 L 284.0 292.5 L 297.5 290.2 L 314.8 284.6 L 320.2 284.3 L 325.4 278.1 L 313.5 278.8 L 301.1 281.3 L 294.5 284.2 L 289.2 285.8 L 285.5 287.5 L 279.7 286.7 L 278.9 284.6 L 278.9 282.1 L 275.6 280.1 L 267.8 280.9 L 262.0 283.0 L 257.1 285.8 L 249.2 287.1 L 243.5 287.5 L 235.7 286.2 L 230.3 283.4 L 225.4 281.3 L 220.8 279.7 L 210.5 278.0 L 198.2 281.7 L 189.5 287.1 L 175.1 292.8 L 163.2 298.2 L 152.5 302.7 L 144.6 305.6 L 138.4 306.8 L 133.5 306.8 L 131.7 306.4 L 129.2 307.7 L 127.3 309.5 L 127.3 314.2 L 124.9 320.0 L 114.1 323.1 L 93.2 329.8 L 79.6 336.6 L 75.8 338.0 L 67.5 341.1 L 52.4 346.4 L 38.7 349.5 L 28.1 350.2 L 18.3 349.5 L 10.7 347.2 L 10.0 346.6 L 10.0 353.7 z M 448.0 67.8 L 443.7 63.5 L 436.0 57.2 L 434.7 56.7 L 434.0 56.0 L 430.5 59.9 L 436.2 67.1 L 440.4 75.0 L 447.2 86.6 L 455.5 78.1 L 450.9 71.4 L 448.0 67.8 z M 428.7 87.6 L 432.9 90.4 L 437.4 94.2 L 440.2 91.8 L 431.5 83.9 L 423.6 78.3 L 417.0 75.0 L 415.9 74.3 L 411.2 78.2 L 418.9 82.9 L 428.7 87.6 z M 368.8 34.0 L 360.3 30.0 L 351.2 26.3 L 335.4 22.4 L 325.5 25.0 L 324.9 24.5 L 322.7 23.3 L 320.5 21.8 L 314.2 16.6 L 311.7 14.0 L 307.4 10.0 L 291.3 10.0 L 297.1 12.9 L 303.6 16.6 L 306.4 22.2 L 308.7 26.4 L 311.1 28.3 L 313.9 29.2 L 345.1 33.4 L 353.1 37.2 L 359.1 40.4 L 367.1 44.2 L 373.6 47.5 L 382.5 51.2 L 400.2 61.5 L 421.3 69.6 L 427.0 63.8 L 424.3 62.7 L 422.5 61.3 L 419.2 59.7 L 415.7 58.3 L 407.0 55.9 L 395.1 49.2 L 378.8 39.3 L 368.8 34.0 z M 368.5 10.0 L 374.2 13.0 L 379.7 16.0 L 381.4 15.4 L 375.3 10.0 L 368.5 10.0 z M 1054.7 427.0 L 1047.7 424.7 L 1041.6 422.8 L 1034.6 418.6 L 1029.0 413.9 L 1027.6 410.2 L 1025.3 403.2 L 1020.6 399.0 L 1013.6 396.2 L 1003.8 394.8 L 997.8 391.5 L 988.4 383.6 L 985.6 375.6 L 981.9 360.7 L 981.9 351.8 L 979.1 342.5 L 974.4 337.8 L 973.3 336.8 L 968.4 332.7 L 965.1 327.6 L 962.8 320.6 L 960.9 309.3 L 960.4 297.2 L 959.0 287.9 L 956.2 283.7 L 951.1 277.1 L 946.4 268.3 L 945.9 259.9 L 942.7 248.7 L 937.5 237.0 L 933.3 228.1 L 929.1 221.1 L 910.9 206.6 L 898.8 199.6 L 882.0 191.2 L 872.7 188.0 L 858.6 182.4 L 849.8 180.0 L 839.0 179.6 L 830.2 181.0 L 825.0 179.6 L 820.4 174.4 L 818.0 167.9 L 813.4 160.4 L 800.8 152.0 L 788.2 148.3 L 771.4 144.6 L 760.1 143.2 L 754.1 143.6 L 755.7 140.8 L 752.7 140.8 L 728.0 140.8 L 713.6 140.8 L 700.6 140.8 L 692.0 140.8 L 668.6 139.6 L 665.5 143.0 L 672.7 144.4 L 679.8 146.2 L 688.8 146.8 L 701.9 147.4 L 719.2 147.4 L 740.6 151.5 L 746.3 153.7 L 751.5 148.2 L 754.3 147.4 L 763.3 149.2 L 774.6 151.0 L 791.3 154.5 L 799.6 159.3 L 805.6 164.1 L 811.6 172.4 L 813.9 179.6 L 818.7 186.7 L 825.3 190.3 L 833.0 190.9 L 839.0 189.7 L 856.3 187.9 L 865.2 190.9 L 878.3 196.3 L 890.2 200.4 L 899.2 207.6 L 911.1 214.1 L 918.3 220.7 L 927.2 229.6 L 932.6 239.2 L 936.1 248.7 L 938.5 259.4 L 937.3 271.4 L 939.1 277.3 L 943.3 283.3 L 947.5 285.7 L 951.0 288.7 L 952.2 303.0 L 952.2 316.1 L 949.8 328.6 L 947.5 336.9 L 947.5 336.9 L 939.7 346.5 L 933.2 353.0 L 929.0 357.8 L 930.8 360.8 L 935.5 360.2 L 949.3 352.4 L 960.0 347.7 L 966.3 344.0 L 972.7 345.6 L 974.3 349.6 L 974.8 357.1 L 973.5 365.4 L 973.1 372.8 L 973.8 378.8 L 977.0 386.4 L 982.5 393.2 L 996.7 401.8 L 1001.7 403.1 L 1006.4 403.2 L 1011.3 402.1 L 1014.2 402.5 L 1016.8 407.8 L 1017.7 412.9 L 1020.0 417.2 L 1025.8 422.2 L 1031.9 425.7 L 1033.6 427.0 L 1054.7 427.0 z M 716.7 427.0 L 719.1 421.4 L 719.4 415.6 L 717.8 411.0 L 715.7 408.6 L 715.3 407.6 L 715.0 406.5 L 714.9 405.1 L 715.1 404.5 L 715.8 403.4 L 719.9 400.0 L 721.5 398.3 L 722.1 397.0 L 722.2 396.3 L 722.2 395.7 L 721.9 395.2 L 721.4 394.9 L 720.8 394.7 L 718.0 394.5 L 715.3 394.0 L 713.7 393.5 L 709.8 391.7 L 708.5 391.3 L 702.2 390.2 L 700.7 389.5 L 700.1 388.9 L 699.8 388.4 L 699.7 387.8 L 700.0 385.8 L 701.8 382.2 L 705.3 378.5 L 707.6 375.4 L 708.2 372.1 L 707.5 368.3 L 703.6 361.9 L 696.9 356.4 L 688.2 352.1 L 681.4 350.4 L 674.8 348.5 L 667.9 347.3 L 659.4 346.8 L 651.9 346.9 L 644.0 346.4 L 636.3 344.5 L 629.5 341.5 L 624.3 338.1 L 623.9 337.6 L 620.6 333.6 L 617.1 327.0 L 614.1 323.7 L 610.1 322.1 L 606.3 321.6 L 603.2 320.9 L 599.8 317.2 L 596.9 314.8 L 594.6 313.7 L 594.3 313.4 L 591.1 314.7 L 584.5 311.4 L 578.3 306.8 L 570.9 301.9 L 550.4 297.6 L 541.7 295.7 L 532.2 294.1 L 515.0 291.2 L 512.4 290.8 L 501.7 289.3 L 494.2 290.4 L 514.6 295.8 L 530.0 299.5 L 546.8 302.3 L 569.2 308.4 L 588.4 318.7 L 600.0 327.6 L 611.2 336.9 L 612.4 337.6 L 622.4 343.9 L 632.7 347.6 L 644.4 352.3 L 663.1 357.4 L 676.1 360.2 L 685.9 362.6 L 692.0 366.3 L 697.1 372.8 L 699.0 380.3 L 697.1 385.9 L 696.7 391.5 L 700.9 395.7 L 707.9 401.3 L 707.4 411.6 L 702.7 422.3 L 700.8 427.0 L 716.7 427.0 z M 1033.6 427.0 L 1031.9 425.7 L 1025.8 422.2 L 1020.0 417.2 L 1017.7 412.9 L 1016.8 407.8 L 1014.2 402.5 L 1011.3 402.1 L 1006.4 403.2 L 1001.7 403.1 L 996.7 401.8 L 982.5 393.2 L 977.0 386.4 L 973.8 378.8 L 973.1 372.8 L 973.5 365.4 L 974.8 357.1 L 974.3 349.6 L 972.7 345.6 L 966.3 344.0 L 960.0 347.7 L 949.3 352.4 L 935.5 360.2 L 930.8 360.8 L 929.0 357.8 L 933.2 353.0 L 939.7 346.5 L 947.5 336.9 L 947.5 336.9 L 949.8 328.6 L 952.2 316.1 L 952.2 303.0 L 951.0 288.7 L 947.5 285.7 L 943.3 283.3 L 939.1 277.3 L 937.3 271.4 L 938.5 259.4 L 936.1 248.7 L 932.6 239.2 L 927.2 229.6 L 918.3 220.7 L 911.1 214.1 L 899.2 207.6 L 890.2 200.4 L 878.3 196.3 L 865.2 190.9 L 856.3 187.9 L 839.0 189.7 L 833.0 190.9 L 825.3 190.3 L 818.7 186.7 L 813.9 179.6 L 811.6 172.4 L 805.6 164.1 L 799.6 159.3 L 791.3 154.5 L 774.6 151.0 L 763.3 149.2 L 754.3 147.4 L 751.5 148.2 L 746.3 153.7 L 740.6 151.5 L 719.2 147.4 L 701.9 147.4 L 688.8 146.8 L 679.8 146.2 L 672.7 144.4 L 665.5 143.0 L 668.6 139.6 L 673.3 133.7 L 667.7 133.5 L 640.6 132.4 L 620.2 131.2 L 598.9 129.9 L 587.7 128.9 L 583.2 132.1 L 573.9 139.3 L 560.2 135.5 L 544.4 133.0 L 524.0 129.7 L 514.5 127.7 L 507.9 125.6 L 503.0 120.7 L 497.2 114.5 L 492.8 111.1 L 494.2 106.6 L 488.9 104.9 L 482.4 104.4 L 470.7 100.2 L 453.0 89.9 L 446.3 87.5 L 441.2 91.0 L 440.2 91.8 L 437.4 94.2 L 432.9 90.4 L 428.7 87.6 L 418.9 82.9 L 411.2 78.2 L 409.5 79.6 L 408.4 80.5 L 404.9 82.7 L 403.5 81.5 L 395.6 77.3 L 387.2 75.5 L 380.2 75.0 L 374.6 73.6 L 363.8 67.5 L 357.3 63.3 L 350.3 59.1 L 343.3 56.8 L 337.2 55.4 L 334.9 52.1 L 323.7 46.1 L 319.0 44.2 L 306.4 44.2 L 299.9 44.7 L 293.8 42.8 L 286.8 40.0 L 281.7 36.2 L 278.4 33.0 L 273.7 27.8 L 263.9 19.9 L 251.3 11.5 L 246.1 10.0 L 194.6 10.0 L 196.1 10.9 L 204.6 12.7 L 211.7 12.8 L 219.7 11.9 L 224.4 10.7 L 226.8 10.0 L 218.4 28.3 L 210.0 42.4 L 201.2 54.3 L 212.1 59.9 L 222.3 65.6 L 232.9 70.3 L 250.3 71.9 L 261.2 73.4 L 266.9 76.6 L 270.1 79.7 L 264.0 82.8 L 268.2 84.9 L 274.4 88.9 L 282.9 92.5 L 289.9 94.4 L 298.3 95.6 L 307.5 95.9 L 315.6 96.3 L 328.8 98.2 L 334.6 100.2 L 338.0 101.2 L 342.6 102.7 L 345.3 105.3 L 348.2 101.2 L 353.7 105.3 L 371.0 114.7 L 386.6 122.9 L 393.3 127.2 L 394.5 128.3 L 395.7 129.9 L 399.1 126.9 L 408.6 118.5 L 413.3 120.3 L 430.6 125.0 L 442.2 127.3 L 452.0 129.6 L 460.9 130.5 L 469.3 132.0 L 473.5 132.9 L 476.4 133.7 L 474.4 136.0 L 484.2 138.8 L 498.2 141.7 L 508.0 143.6 L 521.5 145.1 L 529.0 145.3 L 536.0 145.8 L 561.1 149.1 L 563.0 147.7 L 580.7 152.3 L 596.8 155.3 L 615.0 158.4 L 642.7 157.4 L 652.1 157.8 L 648.5 161.8 L 652.9 162.2 L 662.9 163.7 L 672.6 164.5 L 688.1 168.0 L 698.1 172.6 L 711.2 175.7 L 721.9 179.0 L 726.5 174.3 L 731.0 176.5 L 741.1 182.1 L 752.7 188.1 L 767.3 194.7 L 774.4 202.3 L 782.5 207.3 L 794.1 213.9 L 805.2 217.4 L 823.3 220.4 L 840.5 221.9 L 862.2 226.0 L 878.3 232.5 L 888.9 241.1 L 895.0 247.7 L 903.0 258.8 L 909.1 275.9 L 908.1 285.5 L 905.6 288.5 L 902.0 291.6 L 897.5 297.1 L 894.5 306.7 L 889.9 314.8 L 885.4 321.3 L 878.3 327.4 L 868.2 332.9 L 857.9 337.1 L 857.1 337.5 L 848.6 340.0 L 829.9 344.5 L 806.7 348.6 L 788.5 349.6 L 777.9 348.0 L 773.4 345.5 L 767.3 341.0 L 757.3 338.0 L 756.0 337.4 L 745.7 332.4 L 727.0 327.9 L 711.9 323.3 L 695.2 317.8 L 680.1 311.2 L 664.9 306.7 L 650.8 301.6 L 631.6 295.6 L 613.0 293.6 L 599.9 293.4 L 594.1 292.4 L 564.4 286.4 L 561.7 285.9 L 559.3 285.7 L 553.2 284.1 L 535.7 285.5 L 515.9 281.5 L 507.7 279.1 L 499.8 277.3 L 491.3 275.6 L 479.5 272.7 L 471.7 269.8 L 456.1 264.9 L 441.4 262.3 L 417.2 258.4 L 409.1 256.7 L 400.5 254.4 L 390.2 249.5 L 377.0 253.6 L 368.3 255.9 L 359.7 254.4 L 347.4 251.9 L 342.0 251.1 L 331.7 249.8 L 323.8 249.6 L 298.8 250.0 L 277.2 249.3 L 269.2 249.2 L 259.4 249.6 L 247.1 250.7 L 221.4 253.9 L 172.1 260.5 L 157.6 262.7 L 139.8 263.2 L 129.4 263.4 L 99.3 262.4 L 66.0 264.0 L 44.8 266.2 L 22.1 270.8 L 10.0 275.1 L 10.0 346.6 L 10.7 347.2 L 18.3 349.5 L 28.1 350.2 L 38.7 349.5 L 52.4 346.4 L 67.5 341.1 L 75.8 338.0 L 79.6 336.6 L 93.2 329.8 L 114.1 323.1 L 124.9 320.0 L 127.3 314.2 L 127.3 309.5 L 129.2 307.7 L 131.7 306.4 L 133.5 306.8 L 138.4 306.8 L 144.6 305.6 L 152.5 302.7 L 163.2 298.2 L 175.1 292.8 L 189.5 287.1 L 198.2 281.7 L 210.5 278.0 L 220.8 279.7 L 225.4 281.3 L 230.3 283.4 L 235.7 286.2 L 243.5 287.5 L 249.2 287.1 L 257.1 285.8 L 262.0 283.0 L 267.8 280.9 L 275.6 280.1 L 278.9 282.1 L 278.9 284.6 L 279.7 286.7 L 285.5 287.5 L 289.2 285.8 L 294.5 284.2 L 301.1 281.3 L 313.5 278.8 L 325.4 278.1 L 326.0 277.4 L 332.3 272.8 L 341.7 265.9 L 345.6 266.9 L 353.9 268.5 L 362.9 269.4 L 383.5 275.1 L 395.5 276.8 L 409.0 276.0 L 423.9 278.4 L 439.9 278.4 L 448.2 280.5 L 456.4 283.8 L 464.7 287.9 L 478.1 292.7 L 494.2 290.4 L 501.7 289.3 L 512.4 290.8 L 515.0 291.2 L 532.2 294.1 L 541.7 295.7 L 550.4 297.6 L 570.9 301.9 L 578.3 306.8 L 584.5 311.4 L 591.1 314.7 L 594.3 313.4 L 594.6 313.7 L 596.9 314.8 L 599.8 317.2 L 603.2 320.9 L 606.3 321.6 L 610.1 322.1 L 614.1 323.7 L 617.1 327.0 L 620.6 333.6 L 623.9 337.6 L 624.3 338.1 L 629.5 341.5 L 636.3 344.5 L 644.0 346.4 L 651.9 346.9 L 659.4 346.8 L 667.9 347.3 L 674.8 348.5 L 681.4 350.4 L 688.2 352.1 L 696.9 356.4 L 703.6 361.9 L 707.5 368.3 L 708.2 372.1 L 707.6 375.4 L 705.3 378.5 L 701.8 382.2 L 700.0 385.8 L 699.7 387.8 L 699.8 388.4 L 700.1 388.9 L 700.7 389.5 L 702.2 390.2 L 708.5 391.3 L 709.8 391.7 L 713.7 393.5 L 715.3 394.0 L 718.0 394.5 L 720.8 394.7 L 721.4 394.9 L 721.9 395.2 L 722.2 395.7 L 722.2 396.3 L 722.1 397.0 L 721.5 398.3 L 719.9 400.0 L 715.8 403.4 L 715.1 404.5 L 714.9 405.1 L 715.0 406.5 L 715.3 407.6 L 715.7 408.6 L 717.8 411.0 L 719.4 415.6 L 719.1 421.4 L 716.7 427.0 L 1033.6 427.0 z M 101.1 10.0 L 102.2 12.0 L 107.7 18.4 L 113.6 25.7 L 120.9 31.2 L 127.2 32.9 L 137.4 27.0 L 161.1 10.0 L 101.1 10.0 z M 1044.6 310.0 L 1045.8 315.7 L 1046.8 319.4 L 1048.8 323.4 L 1045.5 329.1 L 1047.1 331.3 L 1047.7 331.9 L 1049.2 334.2 L 1052.4 336.6 L 1052.8 336.9 L 1058.2 339.7 L 1063.0 342.7 L 1068.4 346.7 L 1073.2 351.4 L 1077.1 357.8 L 1082.8 361.9 L 1090.4 365.3 L 1105.3 369.2 L 1117.0 371.4 L 1126.5 373.6 L 1134.5 376.6 L 1143.2 380.8 L 1151.7 385.6 L 1160.1 391.5 L 1166.9 396.5 L 1173.7 403.0 L 1179.0 410.2 L 1181.2 415.9 L 1181.6 423.6 L 1181.4 427.0 L 1187.5 427.0 L 1186.8 423.4 L 1186.4 417.4 L 1188.4 406.5 L 1187.9 401.4 L 1183.3 395.5 L 1176.9 389.8 L 1161.2 379.7 L 1152.8 373.8 L 1141.5 369.1 L 1123.9 362.8 L 1116.0 361.0 L 1107.9 361.4 L 1099.4 361.0 L 1093.3 359.4 L 1086.6 355.3 L 1073.8 344.3 L 1069.1 339.9 L 1066.4 336.6 L 1062.1 330.8 L 1056.9 322.2 L 1054.6 319.1 L 1053.6 318.4 L 1054.2 315.1 L 1053.1 313.6 L 1049.6 306.5 L 1044.6 310.0 z M 1044.6 310.0 L 1044.1 308.7 L 1043.3 307.5 L 1038.8 303.6 L 1035.1 301.5 L 1032.3 299.0 L 1028.6 295.2 L 1026.4 288.8 L 1026.4 280.0 L 1026.0 274.9 L 1025.3 270.7 L 1022.9 259.4 L 1022.3 253.3 L 1020.5 248.3 L 1017.5 246.6 L 1012.7 243.0 L 1009.5 236.9 L 1006.7 229.9 L 1003.0 222.5 L 997.5 213.7 L 990.7 203.3 L 986.5 196.5 L 982.3 189.8 L 975.1 180.5 L 968.0 174.4 L 960.4 166.5 L 954.1 160.8 L 932.1 142.9 L 922.7 136.4 L 913.0 131.9 L 904.7 128.5 L 894.2 123.4 L 886.3 119.3 L 879.8 115.5 L 873.2 109.2 L 867.3 104.3 L 862.8 102.3 L 856.4 100.2 L 850.0 99.0 L 835.5 96.8 L 826.9 94.9 L 817.6 94.0 L 807.1 93.3 L 796.7 94.0 L 786.0 96.8 L 788.4 93.4 L 778.6 94.4 L 770.7 95.9 L 758.9 99.3 L 744.7 100.2 L 735.4 101.1 L 729.6 101.1 L 724.1 101.4 L 718.1 102.8 L 712.6 104.8 L 709.7 105.7 L 707.1 105.7 L 703.6 104.5 L 701.0 102.8 L 699.0 101.6 L 685.1 100.2 L 667.1 99.6 L 654.4 98.8 L 642.8 97.0 L 625.7 95.6 L 619.4 94.1 L 614.2 93.3 L 607.8 91.8 L 592.8 90.4 L 583.8 87.8 L 577.7 86.3 L 580.4 82.5 L 575.4 80.7 L 573.4 80.2 L 570.2 78.8 L 564.8 75.7 L 550.8 70.9 L 544.0 70.1 L 538.0 69.9 L 533.6 69.4 L 519.6 65.4 L 510.8 63.1 L 515.0 54.0 L 518.9 41.3 L 516.1 38.4 L 513.2 36.0 L 510.4 34.3 L 504.1 41.5 L 496.3 47.2 L 477.1 57.6 L 473.9 59.3 L 477.8 64.4 L 484.0 71.4 L 488.9 76.1 L 494.1 79.3 L 502.3 83.3 L 500.7 87.3 L 506.5 91.6 L 511.9 95.3 L 518.8 99.3 L 528.3 103.3 L 535.1 105.6 L 542.5 107.2 L 549.0 107.7 L 556.2 108.0 L 559.7 108.0 L 571.4 106.8 L 577.8 107.2 L 582.4 109.1 L 587.5 111.7 L 600.1 115.8 L 601.0 115.9 L 604.9 116.4 L 611.8 117.2 L 617.4 117.5 L 626.5 116.7 L 637.2 116.6 L 661.2 117.0 L 667.3 117.0 L 680.5 116.7 L 686.4 115.9 L 688.1 116.6 L 683.9 121.1 L 678.8 126.6 L 688.3 126.7 L 701.3 126.5 L 711.8 125.5 L 724.9 125.3 L 738.4 127.1 L 744.9 127.4 L 759.6 127.3 L 762.9 128.4 L 763.6 128.7 L 768.3 121.7 L 772.5 122.9 L 779.4 126.0 L 783.5 128.0 L 787.0 129.0 L 793.7 128.9 L 800.5 128.3 L 815.0 125.1 L 824.3 126.1 L 831.8 127.4 L 839.9 131.8 L 844.2 137.2 L 845.3 141.2 L 845.3 147.2 L 845.5 150.0 L 846.7 152.8 L 850.1 155.5 L 854.3 157.6 L 860.4 158.9 L 879.0 160.3 L 887.5 163.4 L 894.2 167.1 L 902.7 173.4 L 910.0 178.3 L 916.5 181.6 L 924.7 187.3 L 934.5 193.1 L 946.5 201.2 L 950.8 204.6 L 957.0 212.9 L 962.9 226.2 L 966.3 234.3 L 969.9 240.6 L 973.5 246.1 L 978.8 253.0 L 982.2 258.1 L 985.3 264.3 L 986.9 268.5 L 991.5 275.1 L 994.1 281.4 L 996.3 287.3 L 999.1 294.0 L 1002.9 300.1 L 1007.7 305.4 L 1017.4 311.6 L 1020.8 314.9 L 1025.1 320.7 L 1025.6 323.1 L 1026.8 331.3 L 1028.2 336.2 L 1028.4 336.7 L 1030.4 340.8 L 1035.7 350.7 L 1038.0 356.1 L 1040.4 360.6 L 1044.1 364.8 L 1049.2 367.9 L 1054.9 370.6 L 1062.3 373.7 L 1075.3 378.1 L 1082.9 382.2 L 1089.0 386.3 L 1097.1 387.7 L 1103.8 387.8 L 1111.9 389.5 L 1120.1 393.9 L 1130.4 399.4 L 1134.3 403.3 L 1136.6 407.4 L 1139.3 413.8 L 1143.1 418.6 L 1146.6 421.7 L 1151.9 425.2 L 1152.6 427.0 L 1171.5 427.0 L 1171.5 426.9 L 1171.6 424.8 L 1171.4 420.7 L 1170.1 414.7 L 1167.6 409.1 L 1162.3 402.9 L 1157.1 398.2 L 1151.5 393.7 L 1146.0 390.3 L 1138.2 386.6 L 1122.4 384.6 L 1103.9 380.4 L 1094.9 377.6 L 1086.4 375.2 L 1071.7 370.1 L 1063.3 367.5 L 1057.0 363.5 L 1044.3 350.1 L 1042.9 345.1 L 1043.9 341.7 L 1042.5 338.2 L 1040.5 336.6 L 1039.7 336.0 L 1036.9 332.7 L 1035.7 328.2 L 1035.2 321.1 L 1035.1 316.8 L 1044.6 310.0 z M 301.1 312.0 L 307.2 310.6 L 316.1 308.9 L 335.9 306.0 L 349.9 305.3 L 355.0 305.5 L 358.5 306.6 L 361.3 307.7 L 362.6 308.5 L 365.7 309.8 L 369.6 312.4 L 372.1 314.4 L 375.4 317.5 L 377.1 318.9 L 372.0 322.0 L 367.6 324.8 L 371.9 323.9 L 376.9 323.9 L 379.6 324.1 L 392.1 325.6 L 399.1 326.9 L 403.8 328.0 L 415.1 329.2 L 427.5 331.2 L 433.7 332.9 L 440.4 335.0 L 447.4 336.3 L 454.6 337.4 L 456.7 337.9 L 461.0 338.8 L 468.4 340.7 L 476.6 344.8 L 490.5 352.5 L 495.9 355.5 L 502.8 358.3 L 508.2 359.7 L 521.4 355.8 L 522.0 356.9 L 522.4 357.2 L 523.6 358.5 L 527.2 361.5 L 532.8 365.5 L 537.9 367.3 L 553.2 352.9 L 557.1 355.9 L 560.3 358.8 L 564.0 361.0 L 567.2 364.6 L 570.0 370.0 L 573.4 378.1 L 573.4 384.8 L 573.2 389.7 L 573.9 396.1 L 575.6 403.3 L 579.3 411.0 L 581.2 417.6 L 580.4 424.5 L 579.6 427.0 L 608.2 427.0 L 606.4 423.0 L 604.5 418.5 L 604.5 413.2 L 605.8 408.1 L 604.8 403.8 L 599.3 399.4 L 595.2 394.2 L 591.9 384.7 L 589.9 377.7 L 584.9 364.8 L 579.7 357.4 L 574.4 351.9 L 566.3 346.5 L 563.7 344.6 L 561.8 343.0 L 555.2 339.9 L 552.4 338.4 L 550.6 337.7 L 550.5 337.7 L 539.7 333.4 L 533.9 331.3 L 528.3 329.6 L 514.1 326.0 L 507.5 325.6 L 499.7 323.0 L 485.5 322.2 L 479.5 320.5 L 474.2 318.1 L 468.2 316.1 L 458.1 313.3 L 448.0 312.1 L 442.0 309.9 L 425.6 305.0 L 419.0 303.2 L 413.3 304.6 L 409.2 305.6 L 401.2 303.6 L 387.8 301.7 L 377.0 300.2 L 373.9 302.9 L 372.5 302.0 L 367.8 299.9 L 364.2 299.0 L 357.2 297.9 L 349.6 297.7 L 337.9 298.4 L 333.8 298.6 L 325.6 299.2 L 316.1 299.5 L 309.1 300.9 L 305.7 305.7 L 301.1 312.0 z M 409.2 305.6 L 411.1 306.1 L 413.4 306.4 L 416.4 307.1 L 421.1 308.4 L 425.5 310.0 L 440.5 317.1 L 446.9 319.2 L 460.8 322.9 L 467.3 324.8 L 473.9 326.2 L 479.5 327.1 L 496.7 332.4 L 507.5 336.3 L 512.9 337.8 L 514.6 338.3 L 519.9 338.9 L 525.7 339.8 L 537.0 345.0 L 544.5 348.2 L 547.6 348.8 L 534.2 352.9 L 528.2 350.8 L 523.3 348.9 L 518.3 347.6 L 505.2 346.3 L 492.8 343.3 L 485.4 340.4 L 479.3 337.8 L 477.6 337.1 L 470.1 334.5 L 462.0 332.4 L 447.9 327.7 L 441.9 326.2 L 420.3 321.1 L 413.1 320.0 L 407.9 318.8 L 403.7 318.1 L 398.8 316.7 L 394.7 316.1 L 391.0 315.4 L 388.7 315.2 L 386.4 314.6 L 385.6 314.1 L 390.8 312.2 L 409.2 305.6 z M 112.5 427.0 L 113.4 426.3 L 120.1 419.8 L 127.1 413.4 L 132.5 409.8 L 137.3 406.7 L 137.7 406.4 L 148.3 400.8 L 159.3 394.7 L 175.4 386.5 L 186.6 381.6 L 196.3 378.0 L 208.9 374.8 L 218.6 372.7 L 226.1 370.2 L 233.1 366.2 L 243.2 361.7 L 251.2 359.4 L 260.4 356.9 L 267.6 354.1 L 276.7 350.0 L 285.3 347.3 L 294.0 345.2 L 304.0 343.9 L 316.9 340.2 L 322.7 339.3 L 330.0 338.7 L 331.5 338.3 L 333.4 338.0 L 333.5 338.0 L 340.9 328.8 L 336.8 329.9 L 328.7 331.8 L 324.9 332.4 L 313.7 333.7 L 304.2 335.5 L 295.9 338.0 L 292.9 338.9 L 282.1 342.5 L 265.8 347.6 L 249.4 352.6 L 233.3 356.0 L 227.6 357.3 L 221.1 359.8 L 216.1 362.2 L 209.6 365.2 L 202.2 367.7 L 181.4 372.9 L 170.7 376.2 L 166.8 378.3 L 163.2 380.6 L 154.9 386.8 L 146.3 391.7 L 136.4 395.2 L 127.1 395.3 L 120.6 396.9 L 112.7 400.1 L 105.0 403.0 L 96.1 405.5 L 90.4 408.5 L 87.3 411.4 L 82.2 418.4 L 78.0 425.4 L 76.7 427.0 L 112.5 427.0 z M 340.9 328.8 L 345.9 330.9 L 349.9 330.7 L 353.9 330.7 L 359.3 331.0 L 367.6 324.8 L 358.4 321.7 L 351.3 319.3 L 357.7 314.9 L 354.2 314.6 L 349.3 314.8 L 343.7 315.0 L 337.6 315.7 L 330.4 317.4 L 326.2 318.9 L 321.0 321.1 L 315.5 322.0 L 310.5 321.4 L 308.3 319.4 L 302.5 313.2 L 301.1 312.0 L 291.0 314.5 L 282.9 315.7 L 275.8 318.7 L 255.6 321.8 L 246.0 323.7 L 227.1 328.2 L 220.2 330.3 L 210.6 333.5 L 197.0 335.5 L 182.9 338.0 L 168.3 344.4 L 157.8 348.4 L 144.9 351.6 L 139.7 354.1 L 136.7 355.0 L 133.0 356.3 L 119.4 360.7 L 109.5 364.0 L 99.0 368.1 L 87.8 371.2 L 82.1 371.9 L 67.3 385.6 L 56.1 400.1 L 52.2 400.0 L 47.8 398.2 L 40.4 397.2 L 32.4 398.1 L 24.8 401.0 L 13.2 403.2 L 10.0 403.2 L 10.0 409.0 L 10.8 409.2 L 12.3 409.8 L 12.6 411.3 L 12.3 413.6 L 10.0 414.9 L 10.0 422.4 L 17.9 419.5 L 21.1 419.2 L 24.6 419.2 L 30.2 419.6 L 21.4 427.0 L 39.0 427.0 L 46.4 415.8 L 54.8 413.7 L 68.7 407.9 L 79.7 403.0 L 96.9 394.2 L 105.1 390.4 L 114.1 388.4 L 120.2 387.6 L 127.0 387.1 L 135.3 385.8 L 136.4 385.8 L 142.1 382.9 L 148.8 379.1 L 156.5 375.4 L 164.3 373.3 L 186.8 366.6 L 196.0 363.6 L 204.8 360.1 L 214.9 357.4 L 223.2 354.9 L 229.2 352.9 L 237.0 351.7 L 244.8 349.8 L 251.6 345.8 L 256.8 342.2 L 264.3 340.4 L 271.0 339.7 L 272.7 338.9 L 275.7 338.0 L 275.7 338.0 L 290.5 333.8 L 307.4 328.1 L 316.6 325.6 L 331.6 322.6 L 338.3 322.1 L 341.8 322.0 L 345.5 322.3 L 346.3 322.7 L 340.9 328.8 z M 508.2 359.7 L 492.9 362.6 L 493.0 362.9 L 493.4 363.8 L 494.2 367.2 L 495.3 370.9 L 497.1 374.9 L 498.2 377.9 L 499.2 381.2 L 499.6 383.2 L 497.8 385.3 L 496.2 387.7 L 499.2 390.2 L 500.4 392.2 L 501.2 396.0 L 503.3 400.3 L 503.8 407.8 L 496.6 416.1 L 498.0 421.6 L 497.8 427.0 L 514.4 427.0 L 513.0 422.6 L 514.0 412.4 L 513.5 409.3 L 513.4 401.8 L 513.5 396.3 L 513.6 394.9 L 525.3 382.5 L 521.4 380.0 L 520.3 379.0 L 518.1 377.0 L 516.0 374.8 L 513.3 371.4 L 511.5 367.6 L 510.0 363.8 L 508.2 359.7 z M 537.9 367.3 L 525.3 382.5 L 527.6 384.6 L 532.2 390.3 L 535.9 393.9 L 538.4 397.3 L 540.4 401.1 L 543.1 409.9 L 545.1 418.7 L 546.6 427.0 L 563.0 427.0 L 562.0 422.6 L 559.6 411.6 L 555.3 397.9 L 550.9 388.1 L 546.1 379.3 L 541.2 370.8 L 537.9 367.3 z M 484.6 10.0 L 485.8 11.6 L 487.1 16.4 L 488.0 21.2 L 490.2 28.5 L 491.5 30.9 L 484.1 41.4 L 476.6 53.8 L 473.9 59.3 L 477.1 57.6 L 496.3 47.2 L 504.1 41.5 L 510.4 34.3 L 513.2 36.0 L 516.1 38.4 L 518.9 41.3 L 515.0 54.0 L 510.8 63.1 L 519.6 65.4 L 533.6 69.4 L 538.0 69.9 L 544.0 70.1 L 550.8 70.9 L 564.8 75.7 L 570.2 78.8 L 573.4 80.2 L 575.4 80.7 L 580.4 82.5 L 577.7 86.3 L 583.8 87.8 L 592.8 90.4 L 607.8 91.8 L 614.2 93.3 L 619.4 94.1 L 625.7 95.6 L 642.8 97.0 L 654.4 98.8 L 667.1 99.6 L 685.1 100.2 L 699.0 101.6 L 701.0 102.8 L 703.6 104.5 L 707.1 105.7 L 709.7 105.7 L 712.6 104.8 L 718.1 102.8 L 724.1 101.4 L 729.6 101.1 L 735.4 101.1 L 744.7 100.2 L 758.9 99.3 L 770.7 95.9 L 778.6 94.4 L 788.4 93.4 L 786.0 96.8 L 796.7 94.0 L 807.1 93.3 L 817.6 94.0 L 826.9 94.9 L 835.5 96.8 L 850.0 99.0 L 856.4 100.2 L 862.8 102.3 L 867.3 104.3 L 873.2 109.2 L 879.8 115.5 L 886.3 119.3 L 894.2 123.4 L 904.7 128.5 L 913.0 131.9 L 922.7 136.4 L 932.1 142.9 L 954.1 160.8 L 960.4 166.5 L 968.0 174.4 L 975.1 180.5 L 982.3 189.8 L 986.5 196.5 L 990.7 203.3 L 997.5 213.7 L 1003.0 222.5 L 1006.7 229.9 L 1009.5 236.9 L 1012.7 243.0 L 1017.5 246.6 L 1020.5 248.3 L 1022.3 253.3 L 1022.9 259.4 L 1025.3 270.7 L 1026.0 274.9 L 1026.4 280.0 L 1026.4 288.8 L 1028.6 295.2 L 1032.3 299.0 L 1035.1 301.5 L 1038.8 303.6 L 1043.3 307.5 L 1044.1 308.7 L 1044.6 310.0 L 1049.6 306.5 L 1053.1 313.6 L 1054.2 315.1 L 1053.6 318.4 L 1054.6 319.1 L 1056.9 322.2 L 1062.1 330.8 L 1066.4 336.6 L 1069.1 339.9 L 1073.8 344.3 L 1086.6 355.3 L 1093.3 359.4 L 1099.4 361.0 L 1107.9 361.4 L 1116.0 361.0 L 1123.9 362.8 L 1141.5 369.1 L 1152.8 373.8 L 1161.2 379.7 L 1176.9 389.8 L 1183.3 395.5 L 1187.9 401.4 L 1188.4 406.5 L 1186.4 417.4 L 1186.8 423.4 L 1187.5 427.0 L 1209.2 427.0 L 1208.7 421.1 L 1208.3 414.3 L 1209.1 398.6 L 1207.9 390.5 L 1204.8 383.6 L 1198.9 376.8 L 1193.3 373.2 L 1186.5 370.6 L 1175.1 366.9 L 1170.5 364.9 L 1167.7 363.4 L 1164.8 361.5 L 1162.0 359.1 L 1148.3 351.2 L 1139.4 346.5 L 1132.8 343.5 L 1122.7 337.5 L 1115.0 331.0 L 1114.3 330.3 L 1106.0 321.4 L 1096.5 309.5 L 1091.1 301.8 L 1085.2 291.0 L 1085.2 282.1 L 1088.1 280.9 L 1091.7 285.1 L 1099.5 297.6 L 1106.0 307.7 L 1114.3 317.0 L 1116.2 319.0 L 1126.3 327.4 L 1134.6 335.1 L 1146.0 342.9 L 1159.1 348.3 L 1171.4 355.4 L 1176.9 356.2 L 1192.9 362.5 L 1199.4 366.1 L 1210.0 373.2 L 1210.0 68.5 L 1204.7 64.3 L 1200.3 59.5 L 1195.8 55.3 L 1192.0 53.2 L 1190.1 54.2 L 1188.3 54.7 L 1186.6 54.6 L 1184.2 55.8 L 1179.9 59.7 L 1173.5 52.9 L 1169.3 57.5 L 1161.0 56.5 L 1147.5 54.5 L 1140.3 52.8 L 1133.7 50.9 L 1126.3 47.7 L 1118.0 45.1 L 1113.4 44.4 L 1113.4 44.4 L 1098.7 42.2 L 1089.4 40.4 L 1077.7 37.8 L 1065.4 34.7 L 1058.2 33.2 L 1052.9 31.9 L 1048.3 31.6 L 1041.8 29.5 L 1033.5 24.7 L 1025.8 19.1 L 1016.7 14.0 L 1005.9 11.1 L 995.1 12.0 L 984.9 14.0 L 975.3 14.2 L 968.7 13.1 L 960.4 10.6 L 959.2 10.0 L 484.6 10.0 z M 435.2 10.0 L 437.1 11.3 L 440.6 15.0 L 446.3 22.0 L 451.3 29.1 L 455.0 33.5 L 458.2 29.0 L 465.2 22.9 L 473.1 14.1 L 478.0 10.0 L 435.2 10.0 z M 494.1 79.3 L 488.9 76.1 L 484.0 71.4 L 477.8 64.4 L 473.9 59.3 L 466.7 67.9 L 468.7 69.5 L 478.4 78.3 L 485.7 83.1 L 492.1 87.0 L 499.6 89.8 L 498.6 92.5 L 497.8 94.9 L 508.0 101.7 L 519.2 107.3 L 527.5 110.8 L 537.4 112.9 L 548.2 114.2 L 558.1 113.8 L 569.4 113.8 L 579.7 115.9 L 596.0 121.0 L 601.0 115.9 L 600.1 115.8 L 587.5 111.7 L 582.4 109.1 L 577.8 107.2 L 571.4 106.8 L 559.7 108.0 L 556.2 108.0 L 549.0 107.7 L 542.5 107.2 L 535.1 105.6 L 528.3 103.3 L 518.8 99.3 L 511.9 95.3 L 506.5 91.6 L 500.7 87.3 L 502.3 83.3 L 494.1 79.3 z M 540.3 125.0 L 545.5 126.1 L 554.3 119.1 L 558.1 113.8 L 548.2 114.2 L 537.4 112.9 L 527.5 110.8 L 519.2 107.3 L 508.0 101.7 L 497.8 94.9 L 498.6 92.5 L 499.6 89.8 L 492.1 87.0 L 485.7 83.1 L 478.4 78.3 L 468.7 69.5 L 466.7 67.9 L 457.7 76.2 L 466.5 82.9 L 474.5 88.5 L 483.3 94.1 L 494.5 100.2 L 496.0 100.8 L 495.1 103.7 L 502.0 109.1 L 509.5 116.1 L 519.7 121.2 L 530.0 123.6 L 540.3 125.0 z M 447.2 86.6 L 446.3 87.5 L 453.0 89.9 L 470.7 100.2 L 482.4 104.4 L 488.9 104.9 L 494.2 106.6 L 492.8 111.1 L 497.2 114.5 L 503.0 120.7 L 507.9 125.6 L 514.5 127.7 L 524.0 129.7 L 544.4 133.0 L 560.2 135.5 L 573.9 139.3 L 583.2 132.1 L 587.7 128.9 L 598.9 129.9 L 620.2 131.2 L 640.6 132.4 L 667.7 133.5 L 656.6 127.6 L 640.7 125.4 L 620.8 124.1 L 613.4 121.5 L 604.9 116.4 L 601.0 115.9 L 596.0 121.0 L 579.7 115.9 L 569.4 113.8 L 558.1 113.8 L 554.3 119.1 L 545.5 126.1 L 540.3 125.0 L 530.0 123.6 L 519.7 121.2 L 509.5 116.1 L 502.0 109.1 L 495.1 103.7 L 496.0 100.8 L 494.5 100.2 L 483.3 94.1 L 474.5 88.5 L 466.5 82.9 L 457.7 76.2 L 455.5 78.1 L 447.2 86.6 z M 1209.8 10.0 L 1210.0 10.2 L 1210.0 10.0 L 1209.8 10.0 z M 1210.0 10.2 L 1209.8 10.0 L 1055.8 10.0 L 1064.1 16.1 L 1069.6 18.9 L 1077.1 20.1 L 1085.8 19.5 L 1094.1 19.3 L 1103.1 19.2 L 1113.3 19.7 L 1126.4 20.4 L 1146.7 23.5 L 1157.2 25.5 L 1167.7 28.2 L 1173.6 30.1 L 1181.6 29.6 L 1184.0 33.4 L 1185.7 37.7 L 1187.4 38.4 L 1183.9 44.1 L 1189.0 48.6 L 1192.0 53.2 L 1195.8 55.3 L 1200.3 59.5 L 1204.7 64.3 L 1210.0 68.5 L 1210.0 10.2 z M 959.2 10.0 L 960.4 10.6 L 968.7 13.1 L 975.3 14.2 L 984.9 14.0 L 995.1 12.0 L 1005.9 11.1 L 1016.7 14.0 L 1025.8 19.1 L 1033.5 24.7 L 1041.8 29.5 L 1048.3 31.6 L 1052.9 31.9 L 1058.2 33.2 L 1065.4 34.7 L 1077.7 37.8 L 1089.4 40.4 L 1098.7 42.2 L 1113.4 44.4 L 1113.4 44.4 L 1118.0 45.1 L 1126.3 47.7 L 1133.7 50.9 L 1140.3 52.8 L 1147.5 54.5 L 1161.0 56.5 L 1169.3 57.5 L 1173.5 52.9 L 1170.3 51.6 L 1167.0 49.0 L 1163.6 47.4 L 1158.4 43.4 L 1153.2 40.1 L 1138.0 36.5 L 1131.4 35.9 L 1124.4 36.1 L 1116.2 36.6 L 1113.4 36.6 L 1107.7 36.6 L 1101.1 35.9 L 1093.1 34.1 L 1087.5 32.5 L 1079.9 30.1 L 1072.2 28.8 L 1064.6 27.9 L 1056.6 26.3 L 1047.6 24.0 L 1039.4 20.8 L 1031.8 16.1 L 1027.4 10.0 L 959.2 10.0 z M 423.7 342.3 L 417.6 339.7 L 410.7 337.9 L 410.9 337.9 L 406.3 336.8 L 394.6 333.3 L 389.7 331.7 L 386.3 330.8 L 383.6 330.7 L 362.5 330.7 L 361.6 330.6 L 359.3 331.0 L 354.4 338.0 L 353.1 339.9 L 361.2 340.2 L 369.2 340.2 L 377.7 340.7 L 388.4 341.8 L 398.0 343.8 L 417.7 349.9 L 436.2 355.1 L 442.8 357.4 L 449.7 359.4 L 456.8 360.3 L 461.7 362.0 L 466.4 365.2 L 467.9 366.6 L 468.6 367.3 L 489.8 363.5 L 488.2 361.5 L 476.4 355.1 L 470.8 353.6 L 465.3 352.3 L 457.6 351.3 L 450.5 350.3 L 436.7 346.8 L 429.6 344.6 L 423.7 342.3 z M 537.9 367.3 L 532.8 365.5 L 527.2 361.5 L 523.6 358.5 L 522.4 357.2 L 522.0 356.9 L 521.4 355.8 L 508.2 359.7 L 510.0 363.8 L 511.5 367.6 L 513.3 371.4 L 516.0 374.8 L 518.1 377.0 L 520.3 379.0 L 521.4 380.0 L 525.3 382.5 L 537.9 367.3 z M 411.1 306.1 L 409.2 305.6 L 390.8 312.2 L 385.6 314.1 L 386.4 314.6 L 388.7 315.2 L 391.0 315.4 L 394.7 316.1 L 398.8 316.7 L 403.7 318.1 L 407.9 318.8 L 413.1 320.0 L 420.3 321.1 L 441.9 326.2 L 447.9 327.7 L 462.0 332.4 L 470.1 334.5 L 477.6 337.1 L 479.3 337.8 L 485.4 340.4 L 492.8 343.3 L 505.2 346.3 L 518.3 347.6 L 523.3 348.9 L 528.2 350.8 L 534.2 352.9 L 547.6 348.8 L 544.5 348.2 L 537.0 345.0 L 525.7 339.8 L 519.9 338.9 L 514.6 338.3 L 512.9 337.8 L 507.5 336.3 L 496.7 332.4 L 479.5 327.1 L 473.9 326.2 L 467.3 324.8 L 460.8 322.9 L 446.9 319.2 L 440.5 317.1 L 425.5 310.0 L 421.1 308.4 L 416.4 307.1 L 413.4 306.4 L 411.1 306.1 z M 456.7 337.9 L 454.6 337.4 L 447.4 336.3 L 440.4 335.0 L 433.7 332.9 L 427.5 331.2 L 415.1 329.2 L 403.8 328.0 L 399.1 326.9 L 392.1 325.6 L 379.6 324.1 L 376.9 323.9 L 371.9 323.9 L 367.6 324.8 L 359.3 331.0 L 361.6 330.6 L 362.5 330.7 L 383.6 330.7 L 386.3 330.8 L 389.7 331.7 L 394.6 333.3 L 406.3 336.8 L 410.9 337.9 L 410.7 337.9 L 417.6 339.7 L 423.7 342.3 L 429.6 344.6 L 436.7 346.8 L 450.5 350.3 L 457.6 351.3 L 465.3 352.3 L 470.8 353.6 L 476.4 355.1 L 488.2 361.5 L 489.8 363.5 L 493.0 362.9 L 492.9 362.6 L 508.2 359.7 L 502.8 358.3 L 495.9 355.5 L 490.5 352.5 L 476.6 344.8 L 468.4 340.7 L 461.0 338.8 L 456.7 337.9 z M 21.4 427.0 L 30.2 419.6 L 24.6 419.2 L 21.1 419.2 L 17.9 419.5 L 10.0 422.4 L 10.0 427.0 L 21.4 427.0 z M 10.0 403.2 L 13.2 403.2 L 24.8 401.0 L 32.4 398.1 L 40.4 397.2 L 47.8 398.2 L 52.2 400.0 L 56.1 400.1 L 67.3 385.6 L 82.1 371.9 L 73.9 371.1 L 58.7 370.0 L 50.4 370.5 L 43.8 372.1 L 36.7 375.1 L 30.9 378.5 L 25.0 381.5 L 20.2 382.3 L 10.0 382.3 L 10.0 403.2 z M 10.0 414.9 L 12.3 413.6 L 12.6 411.3 L 12.3 409.8 L 10.8 409.2 L 10.0 409.0 L 10.0 414.9 z M 358.5 306.6 L 355.0 305.5 L 349.9 305.3 L 335.9 306.0 L 316.1 308.9 L 307.2 310.6 L 301.1 312.0 L 302.5 313.2 L 308.3 319.4 L 310.5 321.4 L 315.5 322.0 L 321.0 321.1 L 326.2 318.9 L 330.4 317.4 L 337.6 315.7 L 343.7 315.0 L 349.3 314.8 L 354.2 314.6 L 357.7 314.9 L 351.3 319.3 L 358.4 321.7 L 367.6 324.8 L 372.0 322.0 L 377.1 318.9 L 375.4 317.5 L 372.1 314.4 L 369.6 312.4 L 365.7 309.8 L 362.6 308.5 L 361.3 307.7 L 358.5 306.6 z M 60.3 10.0 L 60.1 12.4 L 58.3 22.5 L 58.8 31.6 L 61.5 33.4 L 65.2 33.9 L 69.7 33.4 L 72.9 33.4 L 78.4 37.1 L 86.2 40.8 L 105.4 46.1 L 113.3 40.9 L 117.7 42.6 L 122.7 43.0 L 135.5 43.5 L 150.6 45.3 L 170.3 48.1 L 182.0 52.7 L 188.6 42.5 L 190.7 44.4 L 192.3 46.4 L 195.2 49.3 L 201.2 54.3 L 210.0 42.4 L 218.4 28.3 L 226.8 10.0 L 224.4 10.7 L 219.7 11.9 L 211.7 12.8 L 204.6 12.7 L 196.1 10.9 L 194.6 10.0 L 161.1 10.0 L 137.4 27.0 L 127.2 32.9 L 120.9 31.2 L 113.6 25.7 L 107.7 18.4 L 102.2 12.0 L 101.1 10.0 L 60.3 10.0 z M 283.9 111.8 L 301.3 115.6 L 310.8 116.7 L 319.5 118.9 L 336.2 110.1 L 345.3 105.3 L 342.6 102.7 L 338.0 101.2 L 334.6 100.2 L 328.8 98.2 L 315.6 96.3 L 307.5 95.9 L 298.3 95.6 L 289.9 94.4 L 282.9 92.5 L 274.4 88.9 L 268.2 84.9 L 264.0 82.8 L 270.1 79.7 L 266.9 76.6 L 261.2 73.4 L 250.3 71.9 L 232.9 70.3 L 222.3 65.6 L 212.1 59.9 L 201.2 54.3 L 184.4 69.1 L 186.1 70.6 L 189.3 72.1 L 193.2 74.5 L 201.7 79.5 L 208.8 82.8 L 215.8 85.5 L 226.9 89.2 L 242.6 91.3 L 250.5 93.5 L 243.5 101.1 L 248.6 101.7 L 258.1 103.8 L 274.7 109.1 L 283.9 111.8 z M 10.0 233.7 L 15.8 233.9 L 24.8 234.0 L 35.0 233.9 L 60.0 232.6 L 74.5 230.2 L 84.2 228.2 L 92.2 226.9 L 102.8 228.5 L 111.2 230.9 L 126.9 236.8 L 139.9 236.2 L 149.2 236.2 L 155.1 235.2 L 166.8 236.1 L 173.4 237.5 L 180.2 238.5 L 191.8 238.9 L 205.1 237.9 L 216.9 236.7 L 256.4 233.2 L 283.8 230.8 L 297.2 230.4 L 290.7 239.7 L 296.6 240.5 L 300.8 240.7 L 326.8 243.4 L 348.0 244.4 L 372.0 245.1 L 380.6 246.4 L 390.2 249.5 L 403.3 242.4 L 410.7 245.2 L 410.8 245.6 L 413.9 246.2 L 422.6 248.5 L 429.2 250.5 L 433.4 251.6 L 440.1 253.1 L 449.5 254.7 L 457.2 256.0 L 469.5 257.8 L 474.6 257.9 L 492.9 259.3 L 509.1 260.8 L 523.7 264.3 L 538.8 266.8 L 554.0 270.9 L 562.5 272.9 L 580.7 274.4 L 593.8 275.9 L 606.4 280.5 L 620.5 282.0 L 635.2 285.0 L 651.3 289.0 L 665.4 294.6 L 682.0 298.4 L 694.4 301.9 L 711.0 307.3 L 730.4 312.8 L 749.4 317.8 L 772.6 326.7 L 783.5 331.4 L 798.6 332.9 L 817.2 331.0 L 829.9 327.9 L 844.3 325.2 L 864.4 316.6 L 870.2 313.2 L 876.8 301.5 L 879.5 294.2 L 879.9 284.9 L 877.6 274.4 L 869.4 264.4 L 861.7 257.4 L 851.2 250.0 L 847.4 246.2 L 839.2 240.0 L 831.9 237.3 L 815.2 233.8 L 799.7 229.9 L 782.7 223.3 L 772.2 217.1 L 763.3 209.4 L 753.3 202.8 L 742.0 198.5 L 719.6 189.6 L 714.4 186.9 L 712.0 189.4 L 700.3 187.0 L 690.7 184.5 L 682.7 181.6 L 658.1 176.2 L 647.7 174.5 L 641.0 174.5 L 631.8 172.4 L 616.0 172.4 L 597.2 169.5 L 571.8 165.8 L 552.6 164.5 L 533.4 160.8 L 506.8 157.3 L 490.8 155.3 L 479.6 152.5 L 466.1 148.6 L 469.7 142.3 L 467.1 141.6 L 458.5 140.7 L 454.0 140.5 L 448.4 139.7 L 442.6 139.2 L 428.0 138.6 L 423.3 138.2 L 419.2 137.3 L 414.2 135.9 L 408.1 133.0 L 399.1 126.9 L 395.7 129.9 L 388.6 138.5 L 393.7 143.1 L 397.0 145.2 L 401.6 147.4 L 406.9 149.1 L 414.0 149.3 L 420.6 149.2 L 428.3 148.5 L 433.7 147.6 L 443.2 146.9 L 450.8 147.1 L 459.0 148.7 L 465.0 150.5 L 457.4 158.8 L 455.1 161.8 L 459.2 162.9 L 470.2 165.6 L 483.7 168.7 L 495.7 171.8 L 505.4 173.3 L 520.1 174.9 L 533.7 178.0 L 548.4 180.4 L 565.9 184.5 L 580.5 186.2 L 611.8 190.4 L 630.2 190.4 L 651.4 193.3 L 681.1 200.0 L 692.7 202.1 L 696.5 202.5 L 701.5 205.0 L 702.7 208.1 L 713.9 213.9 L 724.8 219.0 L 738.7 222.4 L 741.8 223.6 L 748.2 227.6 L 754.0 232.2 L 766.8 239.6 L 773.8 244.6 L 784.6 250.0 L 790.4 252.7 L 796.6 255.1 L 799.3 255.8 L 803.2 258.2 L 805.5 261.6 L 807.9 271.7 L 811.0 276.4 L 815.2 280.6 L 820.3 283.7 L 831.1 291.5 L 833.8 296.1 L 832.3 302.7 L 827.6 306.2 L 820.6 307.3 L 811.3 307.3 L 793.9 307.7 L 785.8 307.3 L 779.6 306.2 L 768.7 302.3 L 757.5 299.2 L 730.4 289.1 L 715.7 284.5 L 697.1 281.4 L 672.3 277.5 L 651.0 271.7 L 625.5 266.3 L 602.6 260.9 L 584.8 258.9 L 568.9 255.4 L 553.8 251.6 L 527.9 246.2 L 508.5 244.6 L 487.2 242.3 L 479.6 240.4 L 463.1 235.4 L 455.3 232.7 L 447.5 231.1 L 436.8 229.4 L 428.8 227.9 L 418.6 227.1 L 416.8 229.7 L 414.0 233.7 L 407.7 239.9 L 403.9 238.7 L 398.7 237.5 L 387.1 234.5 L 380.2 232.9 L 371.8 232.5 L 363.4 232.3 L 343.3 230.4 L 333.7 228.7 L 325.5 226.3 L 318.6 224.7 L 312.3 224.1 L 304.3 220.6 L 308.9 214.4 L 306.7 214.2 L 303.9 213.4 L 299.1 212.6 L 284.1 212.2 L 272.6 210.4 L 263.5 210.6 L 256.6 211.1 L 246.8 211.4 L 236.7 212.0 L 228.4 212.0 L 217.6 211.3 L 199.0 209.7 L 187.4 209.8 L 176.2 209.6 L 163.0 209.7 L 150.7 208.9 L 137.2 208.7 L 136.0 208.9 L 120.9 209.0 L 102.8 210.2 L 93.5 210.9 L 75.2 212.9 L 71.5 213.5 L 50.5 213.9 L 37.6 214.6 L 29.3 214.5 L 20.9 214.1 L 14.2 213.2 L 10.0 212.3 L 10.0 233.7 z M 388.6 138.5 L 383.9 135.0 L 377.8 131.7 L 372.3 129.0 L 361.0 123.3 L 346.4 116.8 L 341.1 114.0 L 337.9 112.8 L 345.3 105.3 L 336.2 110.1 L 319.5 118.9 L 310.8 116.7 L 301.3 115.6 L 283.9 111.8 L 274.7 109.1 L 258.1 103.8 L 248.6 101.7 L 243.5 101.1 L 250.5 93.5 L 242.6 91.3 L 226.9 89.2 L 215.8 85.5 L 208.8 82.8 L 201.7 79.5 L 193.2 74.5 L 189.3 72.1 L 186.1 70.6 L 184.4 69.1 L 201.2 54.3 L 195.2 49.3 L 192.3 46.4 L 190.7 44.4 L 188.6 42.5 L 182.0 52.7 L 170.3 48.1 L 150.6 45.3 L 135.5 43.5 L 122.7 43.0 L 117.7 42.6 L 113.3 40.9 L 105.4 46.1 L 86.2 40.8 L 78.4 37.1 L 72.9 33.4 L 69.7 33.4 L 65.2 33.9 L 61.5 33.4 L 58.8 31.6 L 58.3 22.5 L 60.1 12.4 L 60.3 10.0 L 10.0 10.0 L 10.0 35.3 L 10.7 35.6 L 18.4 40.3 L 27.6 47.6 L 35.6 55.8 L 46.7 70.5 L 50.4 74.9 L 65.2 64.2 L 85.4 55.4 L 88.0 55.8 L 98.1 58.1 L 109.7 62.3 L 107.2 63.6 L 100.1 69.1 L 85.9 80.2 L 90.3 84.6 L 95.2 83.2 L 101.8 78.0 L 110.5 73.4 L 115.4 75.2 L 120.6 79.2 L 124.4 81.8 L 129.2 85.8 L 135.0 88.7 L 137.7 91.2 L 143.5 95.0 L 146.7 97.4 L 150.2 92.9 L 151.4 94.1 L 154.0 95.7 L 162.3 99.2 L 157.5 108.6 L 156.2 113.3 L 155.0 117.6 L 167.4 126.0 L 175.6 128.8 L 184.0 130.1 L 193.7 130.6 L 219.6 131.6 L 231.0 131.9 L 251.5 133.2 L 274.1 134.4 L 293.3 135.2 L 303.1 135.4 L 322.8 137.1 L 332.2 139.6 L 339.1 141.8 L 348.5 146.2 L 355.4 149.9 L 366.3 154.2 L 371.5 155.3 L 374.4 156.2 L 377.7 157.1 L 381.8 149.7 L 383.4 146.7 L 388.6 138.5 z M 1091.7 285.1 L 1088.1 280.9 L 1085.2 282.1 L 1085.2 291.0 L 1091.1 301.8 L 1096.5 309.5 L 1106.0 321.4 L 1114.3 330.3 L 1115.0 331.0 L 1122.7 337.5 L 1132.8 343.5 L 1139.4 346.5 L 1148.3 351.2 L 1162.0 359.1 L 1164.8 361.5 L 1167.7 363.4 L 1170.5 364.9 L 1175.1 366.9 L 1186.5 370.6 L 1193.3 373.2 L 1198.9 376.8 L 1204.8 383.6 L 1207.9 390.5 L 1209.1 398.6 L 1208.3 414.3 L 1208.7 421.1 L 1209.2 427.0 L 1210.0 427.0 L 1210.0 373.2 L 1199.4 366.1 L 1192.9 362.5 L 1176.9 356.2 L 1171.4 355.4 L 1159.1 348.3 L 1146.0 342.9 L 1134.6 335.1 L 1126.3 327.4 L 1116.2 319.0 L 1114.3 317.0 L 1106.0 307.7 L 1099.5 297.6 L 1091.7 285.1 z M 1181.4 427.0 L 1181.6 423.6 L 1181.2 415.9 L 1179.0 410.2 L 1173.7 403.0 L 1166.9 396.5 L 1160.1 391.5 L 1151.7 385.6 L 1143.2 380.8 L 1134.5 376.6 L 1126.5 373.6 L 1117.0 371.4 L 1105.3 369.2 L 1090.4 365.3 L 1082.8 361.9 L 1077.1 357.8 L 1073.2 351.4 L 1068.4 346.7 L 1063.0 342.7 L 1058.2 339.7 L 1052.8 336.9 L 1052.4 336.6 L 1049.2 334.2 L 1047.7 331.9 L 1047.1 331.3 L 1045.5 329.1 L 1048.8 323.4 L 1046.8 319.4 L 1045.8 315.7 L 1044.6 310.0 L 1035.1 316.8 L 1035.2 321.1 L 1035.7 328.2 L 1036.9 332.7 L 1039.7 336.0 L 1040.5 336.6 L 1042.5 338.2 L 1043.9 341.7 L 1042.9 345.1 L 1044.3 350.1 L 1057.0 363.5 L 1063.3 367.5 L 1071.7 370.1 L 1086.4 375.2 L 1094.9 377.6 L 1103.9 380.4 L 1122.4 384.6 L 1138.2 386.6 L 1146.0 390.3 L 1151.5 393.7 L 1157.1 398.2 L 1162.3 402.9 L 1167.6 409.1 L 1170.1 414.7 L 1171.4 420.7 L 1171.6 424.8 L 1171.5 426.9 L 1171.5 427.0 L 1181.4 427.0 z M 68.9 130.2 L 67.0 122.2 L 63.6 106.2 L 61.9 101.4 L 60.9 100.0 L 57.4 102.9 L 42.3 117.1 L 44.1 122.7 L 45.2 125.5 L 46.7 128.3 L 48.0 129.8 L 50.2 136.4 L 57.7 133.1 L 68.9 130.2 z M 10.0 119.1 L 16.5 113.5 L 30.2 100.8 L 36.3 91.7 L 27.4 90.5 L 20.2 92.6 L 10.6 94.9 L 10.0 94.9 L 10.0 119.1 z M 10.0 212.3 L 14.2 213.2 L 20.9 214.1 L 29.3 214.5 L 37.6 214.6 L 50.5 213.9 L 71.5 213.5 L 75.2 212.9 L 93.5 210.9 L 102.8 210.2 L 120.9 209.0 L 136.0 208.9 L 137.2 208.7 L 150.7 208.9 L 163.0 209.7 L 176.2 209.6 L 187.4 209.8 L 199.0 209.7 L 217.6 211.3 L 228.4 212.0 L 236.7 212.0 L 246.8 211.4 L 256.6 211.1 L 263.5 210.6 L 272.6 210.4 L 284.1 212.2 L 299.1 212.6 L 303.9 213.4 L 306.7 214.2 L 308.9 214.4 L 304.3 220.6 L 312.3 224.1 L 318.6 224.7 L 325.5 226.3 L 333.7 228.7 L 343.3 230.4 L 363.4 232.3 L 371.8 232.5 L 380.2 232.9 L 387.1 234.5 L 398.7 237.5 L 403.9 238.7 L 407.7 239.9 L 414.0 233.7 L 416.8 229.7 L 412.1 227.9 L 406.6 225.6 L 393.9 222.5 L 382.2 221.7 L 373.0 220.2 L 360.2 219.4 L 349.7 217.9 L 325.7 213.2 L 312.6 210.0 L 317.2 204.5 L 293.2 199.3 L 271.5 198.1 L 250.2 198.9 L 230.8 200.5 L 210.3 200.5 L 189.8 200.1 L 175.8 198.1 L 160.7 197.0 L 146.0 197.4 L 134.4 197.4 L 110.4 199.4 L 77.5 205.8 L 59.2 207.1 L 35.4 206.7 L 14.9 203.0 L 10.0 202.1 L 10.0 212.3 z M 10.0 151.2 L 19.0 147.1 L 44.8 138.8 L 50.2 136.4 L 48.0 129.8 L 46.7 128.3 L 45.2 125.5 L 44.1 122.7 L 42.3 117.1 L 57.4 102.9 L 60.9 100.0 L 61.9 101.4 L 63.6 106.2 L 67.0 122.2 L 68.9 130.2 L 73.1 129.1 L 76.2 125.0 L 77.6 119.9 L 82.4 111.6 L 87.0 107.6 L 95.8 104.5 L 102.1 103.9 L 111.0 105.6 L 120.7 108.5 L 126.4 110.5 L 133.7 114.0 L 137.8 109.6 L 139.5 107.1 L 144.0 109.1 L 148.9 111.3 L 156.2 113.3 L 157.5 108.6 L 162.3 99.2 L 154.0 95.7 L 151.4 94.1 L 150.2 92.9 L 146.7 97.4 L 143.5 95.0 L 137.7 91.2 L 135.0 88.7 L 129.2 85.8 L 124.4 81.8 L 120.6 79.2 L 115.4 75.2 L 110.5 73.4 L 101.8 78.0 L 95.2 83.2 L 90.3 84.6 L 85.9 80.2 L 100.1 69.1 L 107.2 63.6 L 109.7 62.3 L 98.1 58.1 L 88.0 55.8 L 85.4 55.4 L 65.2 64.2 L 50.4 74.9 L 46.7 70.5 L 35.6 55.8 L 27.6 47.6 L 18.4 40.3 L 10.7 35.6 L 10.0 35.3 L 10.0 94.9 L 10.6 94.9 L 20.2 92.6 L 27.4 90.5 L 36.3 91.7 L 30.2 100.8 L 16.5 113.5 L 10.0 119.1 L 10.0 151.2 z M 292.4 146.6 L 307.1 147.4 L 318.3 149.7 L 342.7 155.5 L 359.4 162.9 L 369.6 165.7 L 377.7 157.1 L 374.4 156.2 L 371.5 155.3 L 366.3 154.2 L 355.4 149.9 L 348.5 146.2 L 339.1 141.8 L 332.2 139.6 L 322.8 137.1 L 303.1 135.4 L 293.3 135.2 L 274.1 134.4 L 251.5 133.2 L 231.0 131.9 L 219.6 131.6 L 193.7 130.6 L 184.0 130.1 L 175.6 128.8 L 167.4 126.0 L 155.0 117.6 L 151.2 129.4 L 155.3 132.3 L 163.8 136.2 L 171.2 138.9 L 184.7 141.2 L 197.5 141.6 L 213.8 140.0 L 229.3 141.2 L 238.6 142.7 L 254.8 143.5 L 275.0 146.2 L 292.4 146.6 z M 10.0 275.1 L 22.1 270.8 L 44.8 266.2 L 66.0 264.0 L 99.3 262.4 L 129.4 263.4 L 139.8 263.2 L 157.6 262.7 L 172.1 260.5 L 221.4 253.9 L 247.1 250.7 L 259.4 249.6 L 269.2 249.2 L 277.2 249.3 L 298.8 250.0 L 323.8 249.6 L 331.7 249.8 L 342.0 251.1 L 347.4 251.9 L 359.7 254.4 L 368.3 255.9 L 377.0 253.6 L 390.2 249.5 L 380.6 246.4 L 372.0 245.1 L 348.0 244.4 L 326.8 243.4 L 300.8 240.7 L 296.6 240.5 L 290.7 239.7 L 297.2 230.4 L 283.8 230.8 L 256.4 233.2 L 216.9 236.7 L 205.1 237.9 L 191.8 238.9 L 180.2 238.5 L 173.4 237.5 L 166.8 236.1 L 155.1 235.2 L 149.2 236.2 L 139.9 236.2 L 126.9 236.8 L 111.2 230.9 L 102.8 228.5 L 92.2 226.9 L 84.2 228.2 L 74.5 230.2 L 60.0 232.6 L 35.0 233.9 L 24.8 234.0 L 15.8 233.9 L 10.0 233.7 L 10.0 275.1 z M 525.3 382.5 L 513.6 394.9 L 513.5 396.3 L 513.4 401.8 L 513.5 409.3 L 514.0 412.4 L 513.0 422.6 L 514.4 427.0 L 546.6 427.0 L 545.1 418.7 L 543.1 409.9 L 540.4 401.1 L 538.4 397.3 L 535.9 393.9 L 532.2 390.3 L 527.6 384.6 L 525.3 382.5 z M 537.9 367.3 L 541.2 370.8 L 546.1 379.3 L 550.9 388.1 L 555.3 397.9 L 559.6 411.6 L 562.0 422.6 L 563.0 427.0 L 579.6 427.0 L 580.4 424.5 L 581.2 417.6 L 579.3 411.0 L 575.6 403.3 L 573.9 396.1 L 573.2 389.7 L 573.4 384.8 L 573.4 378.1 L 570.0 370.0 L 567.2 364.6 L 564.0 361.0 L 560.3 358.8 L 557.1 355.9 L 553.2 352.9 L 537.9 367.3 z M 397.0 145.2 L 393.7 143.1 L 388.6 138.5 L 383.4 146.7 L 381.8 149.7 L 389.6 154.0 L 399.3 157.5 L 410.5 160.2 L 421.4 161.7 L 438.4 158.2 L 451.6 157.9 L 457.4 158.8 L 465.0 150.5 L 459.0 148.7 L 450.8 147.1 L 443.2 146.9 L 433.7 147.6 L 428.3 148.5 L 420.6 149.2 L 414.0 149.3 L 406.9 149.1 L 401.6 147.4 L 397.0 145.2 z M 348.2 101.2 L 345.3 105.3 L 337.9 112.8 L 341.1 114.0 L 346.4 116.8 L 361.0 123.3 L 372.3 129.0 L 377.8 131.7 L 383.9 135.0 L 388.6 138.5 L 395.7 129.9 L 394.5 128.3 L 393.3 127.2 L 386.6 122.9 L 371.0 114.7 L 353.7 105.3 L 348.2 101.2 z M 456.4 283.8 L 448.2 280.5 L 439.9 278.4 L 423.9 278.4 L 409.0 276.0 L 395.5 276.8 L 383.5 275.1 L 362.9 269.4 L 353.9 268.5 L 345.6 266.9 L 341.7 265.9 L 332.3 272.8 L 348.9 274.3 L 362.4 277.6 L 376.9 280.9 L 389.0 283.2 L 401.2 283.2 L 413.3 284.6 L 424.0 285.5 L 433.8 286.0 L 443.6 286.0 L 456.2 289.7 L 465.6 293.0 L 467.7 294.0 L 472.0 293.6 L 478.1 292.7 L 464.7 287.9 L 456.4 283.8 z M 1184.2 55.8 L 1186.6 54.6 L 1188.3 54.7 L 1190.1 54.2 L 1192.0 53.2 L 1189.0 48.6 L 1183.9 44.1 L 1187.4 38.4 L 1185.7 37.7 L 1184.0 33.4 L 1181.6 29.6 L 1173.6 30.1 L 1167.7 28.2 L 1157.2 25.5 L 1146.7 23.5 L 1126.4 20.4 L 1113.3 19.7 L 1103.1 19.2 L 1094.1 19.3 L 1085.8 19.5 L 1077.1 20.1 L 1069.6 18.9 L 1064.1 16.1 L 1055.8 10.0 L 1027.4 10.0 L 1031.8 16.1 L 1039.4 20.8 L 1047.6 24.0 L 1056.6 26.3 L 1064.6 27.9 L 1072.2 28.8 L 1079.9 30.1 L 1087.5 32.5 L 1093.1 34.1 L 1101.1 35.9 L 1107.7 36.6 L 1113.4 36.6 L 1116.2 36.6 L 1124.4 36.1 L 1131.4 35.9 L 1138.0 36.5 L 1153.2 40.1 L 1158.4 43.4 L 1163.6 47.4 L 1167.0 49.0 L 1170.3 51.6 L 1173.5 52.9 L 1179.9 59.7 L 1184.2 55.8 z M 428.8 227.9 L 436.8 229.4 L 447.5 231.1 L 455.3 232.7 L 463.1 235.4 L 479.6 240.4 L 487.2 242.3 L 508.5 244.6 L 527.9 246.2 L 553.8 251.6 L 568.9 255.4 L 584.8 258.9 L 602.6 260.9 L 625.5 266.3 L 651.0 271.7 L 672.3 277.5 L 697.1 281.4 L 715.7 284.5 L 730.4 289.1 L 757.5 299.2 L 768.7 302.3 L 779.6 306.2 L 785.8 307.3 L 793.9 307.7 L 811.3 307.3 L 820.6 307.3 L 827.6 306.2 L 832.3 302.7 L 833.8 296.1 L 831.1 291.5 L 820.3 283.7 L 815.2 280.6 L 811.0 276.4 L 807.9 271.7 L 805.5 261.6 L 803.2 258.2 L 799.3 255.8 L 796.6 255.1 L 790.4 252.7 L 784.6 250.0 L 773.8 244.6 L 766.8 239.6 L 754.0 232.2 L 748.2 227.6 L 741.8 223.6 L 738.7 222.4 L 724.8 219.0 L 713.9 213.9 L 702.7 208.1 L 701.5 205.0 L 696.5 202.5 L 692.7 202.1 L 681.1 200.0 L 651.4 193.3 L 630.2 190.4 L 611.8 190.4 L 580.5 186.2 L 565.9 184.5 L 548.4 180.4 L 533.7 178.0 L 520.1 174.9 L 505.4 173.3 L 495.7 171.8 L 483.7 168.7 L 470.2 165.6 L 459.2 162.9 L 455.1 161.8 L 449.3 169.5 L 464.0 173.3 L 479.8 176.4 L 501.5 181.1 L 513.9 183.0 L 522.8 184.6 L 535.9 186.2 L 573.4 192.9 L 614.3 199.5 L 641.9 201.2 L 675.6 208.3 L 691.9 216.2 L 709.0 227.1 L 722.4 232.9 L 737.8 241.3 L 760.3 254.6 L 763.7 259.6 L 764.9 265.9 L 764.5 270.9 L 761.6 274.2 L 754.1 275.5 L 744.1 275.5 L 731.6 272.6 L 710.7 269.2 L 693.2 264.2 L 669.4 260.9 L 646.9 256.7 L 627.2 252.5 L 596.8 247.9 L 549.2 239.6 L 501.3 234.2 L 490.3 232.6 L 478.3 229.1 L 467.8 226.4 L 454.3 223.3 L 438.4 220.2 L 424.2 217.8 L 423.0 220.8 L 418.6 227.1 L 428.8 227.9 z M 646.9 256.7 L 669.4 260.9 L 693.2 264.2 L 710.7 269.2 L 731.6 272.6 L 744.1 275.5 L 754.1 275.5 L 761.6 274.2 L 764.5 270.9 L 764.9 265.9 L 763.7 259.6 L 760.3 254.6 L 737.8 241.3 L 722.4 232.9 L 709.0 227.1 L 691.9 216.2 L 675.6 208.3 L 641.9 201.2 L 614.3 199.5 L 573.4 192.9 L 535.9 186.2 L 522.8 184.6 L 513.9 183.0 L 501.5 181.1 L 479.8 176.4 L 464.0 173.3 L 449.3 169.5 L 455.1 161.8 L 457.4 158.8 L 451.6 157.9 L 438.4 158.2 L 421.4 161.7 L 410.5 160.2 L 399.3 157.5 L 389.6 154.0 L 381.8 149.7 L 377.7 157.1 L 369.6 165.7 L 359.4 162.9 L 342.7 155.5 L 318.3 149.7 L 307.1 147.4 L 292.4 146.6 L 275.0 146.2 L 254.8 143.5 L 238.6 142.7 L 229.3 141.2 L 213.8 140.0 L 197.5 141.6 L 184.7 141.2 L 171.2 138.9 L 163.8 136.2 L 155.3 132.3 L 151.2 129.4 L 155.0 117.6 L 156.2 113.3 L 148.9 111.3 L 144.0 109.1 L 139.5 107.1 L 137.8 109.6 L 133.7 114.0 L 126.4 110.5 L 120.7 108.5 L 111.0 105.6 L 102.1 103.9 L 95.8 104.5 L 87.0 107.6 L 82.4 111.6 L 77.6 119.9 L 76.2 125.0 L 73.1 129.1 L 68.9 130.2 L 57.7 133.1 L 50.2 136.4 L 44.8 138.8 L 19.0 147.1 L 10.0 151.2 L 10.0 202.1 L 14.9 203.0 L 35.4 206.7 L 59.2 207.1 L 77.5 205.8 L 110.4 199.4 L 134.4 197.4 L 146.0 197.4 L 160.7 197.0 L 175.8 198.1 L 189.8 200.1 L 210.3 200.5 L 230.8 200.5 L 250.2 198.9 L 271.5 198.1 L 293.2 199.3 L 317.2 204.5 L 312.6 210.0 L 325.7 213.2 L 349.7 217.9 L 360.2 219.4 L 373.0 220.2 L 382.2 221.7 L 393.9 222.5 L 406.6 225.6 L 412.1 227.9 L 416.8 229.7 L 418.6 227.1 L 423.0 220.8 L 424.2 217.8 L 438.4 220.2 L 454.3 223.3 L 467.8 226.4 L 478.3 229.1 L 490.3 232.6 L 501.3 234.2 L 549.2 239.6 L 596.8 247.9 L 627.2 252.5 L 646.9 256.7 z M 1152.6 427.0 L 1151.9 425.2 L 1146.6 421.7 L 1143.1 418.6 L 1139.3 413.8 L 1136.6 407.4 L 1134.3 403.3 L 1130.4 399.4 L 1120.1 393.9 L 1111.9 389.5 L 1103.8 387.8 L 1097.1 387.7 L 1089.0 386.3 L 1082.9 382.2 L 1075.3 378.1 L 1062.3 373.7 L 1054.9 370.6 L 1049.2 367.9 L 1044.1 364.8 L 1040.4 360.6 L 1038.0 356.1 L 1035.7 350.7 L 1030.4 340.8 L 1028.4 336.7 L 1028.2 336.2 L 1026.8 331.3 L 1025.6 323.1 L 1025.1 320.7 L 1020.8 314.9 L 1017.4 311.6 L 1007.7 305.4 L 1002.9 300.1 L 999.1 294.0 L 996.3 287.3 L 994.1 281.4 L 991.5 275.1 L 986.9 268.5 L 985.3 264.3 L 982.2 258.1 L 978.8 253.0 L 973.5 246.1 L 969.9 240.6 L 966.3 234.3 L 962.9 226.2 L 957.0 212.9 L 950.8 204.6 L 946.5 201.2 L 934.5 193.1 L 924.7 187.3 L 916.5 181.6 L 910.0 178.3 L 902.7 173.4 L 894.2 167.1 L 887.5 163.4 L 879.0 160.3 L 860.4 158.9 L 854.3 157.6 L 850.1 155.5 L 846.7 152.8 L 845.5 150.0 L 845.3 147.2 L 845.3 141.2 L 844.2 137.2 L 839.9 131.8 L 831.8 127.4 L 824.3 126.1 L 815.0 125.1 L 800.5 128.3 L 793.7 128.9 L 787.0 129.0 L 783.5 128.0 L 779.4 126.0 L 772.5 122.9 L 768.3 121.7 L 763.6 128.7 L 762.9 128.4 L 759.6 127.3 L 744.9 127.4 L 738.4 127.1 L 724.9 125.3 L 711.8 125.5 L 701.3 126.5 L 688.3 126.7 L 678.8 126.6 L 683.9 121.1 L 688.1 116.6 L 686.4 115.9 L 680.5 116.7 L 667.3 117.0 L 661.2 117.0 L 637.2 116.6 L 626.5 116.7 L 617.4 117.5 L 611.8 117.2 L 604.9 116.4 L 613.4 121.5 L 620.8 124.1 L 640.7 125.4 L 656.6 127.6 L 667.7 133.5 L 673.3 133.7 L 675.5 130.9 L 676.1 131.1 L 687.8 132.4 L 701.1 134.1 L 714.1 134.1 L 728.4 133.2 L 748.7 133.2 L 761.3 134.0 L 762.5 131.2 L 775.3 132.6 L 797.5 135.6 L 806.6 136.6 L 817.7 136.1 L 824.2 137.6 L 831.3 142.1 L 833.8 151.7 L 833.8 162.3 L 834.8 168.4 L 838.3 172.9 L 847.9 171.9 L 857.0 168.9 L 867.6 166.9 L 881.2 170.4 L 904.9 182.0 L 921.1 192.6 L 935.2 202.2 L 948.8 219.3 L 957.4 232.4 L 968.0 246.1 L 977.6 262.7 L 982.6 276.8 L 984.1 290.0 L 984.6 300.5 L 989.2 306.1 L 997.8 311.6 L 1004.8 318.2 L 1014.9 333.3 L 1015.9 336.7 L 1016.4 338.4 L 1017.4 344.9 L 1021.5 353.0 L 1026.5 356.5 L 1027.0 357.0 L 1031.5 363.1 L 1040.1 373.2 L 1045.2 378.2 L 1053.2 382.3 L 1062.8 384.8 L 1069.4 386.3 L 1076.4 390.3 L 1088.0 395.9 L 1108.2 398.4 L 1117.8 403.5 L 1124.4 411.0 L 1125.4 417.1 L 1125.4 423.6 L 1125.6 427.0 L 1152.6 427.0 z M 10.0 382.3 L 20.2 382.3 L 25.0 381.5 L 30.9 378.5 L 36.7 375.1 L 43.8 372.1 L 50.4 370.5 L 58.7 370.0 L 73.9 371.1 L 82.1 371.9 L 87.8 371.2 L 99.0 368.1 L 109.5 364.0 L 119.4 360.7 L 133.0 356.3 L 136.7 355.0 L 139.7 354.1 L 144.9 351.6 L 157.8 348.4 L 168.3 344.4 L 182.9 338.0 L 197.0 335.5 L 210.6 333.5 L 220.2 330.3 L 227.1 328.2 L 246.0 323.7 L 255.6 321.8 L 275.8 318.7 L 282.9 315.7 L 291.0 314.5 L 301.1 312.0 L 305.7 305.7 L 309.1 300.9 L 316.1 299.5 L 325.6 299.2 L 333.8 298.6 L 337.9 298.4 L 349.6 297.7 L 357.2 297.9 L 364.2 299.0 L 367.8 299.9 L 372.5 302.0 L 373.9 302.9 L 377.0 300.2 L 387.8 301.7 L 401.2 303.6 L 409.2 305.6 L 413.3 304.6 L 419.0 303.2 L 425.6 305.0 L 442.0 309.9 L 448.0 312.1 L 458.1 313.3 L 468.2 316.1 L 474.2 318.1 L 479.5 320.5 L 485.5 322.2 L 499.7 323.0 L 507.5 325.6 L 514.1 326.0 L 528.3 329.6 L 533.9 331.3 L 539.7 333.4 L 550.5 337.7 L 550.6 337.7 L 552.4 338.4 L 555.2 339.9 L 561.8 343.0 L 563.7 344.6 L 566.3 346.5 L 574.4 351.9 L 579.7 357.4 L 584.9 364.8 L 589.9 377.7 L 591.9 384.7 L 595.2 394.2 L 599.3 399.4 L 604.8 403.8 L 605.8 408.1 L 604.5 413.2 L 604.5 418.5 L 606.4 423.0 L 608.2 427.0 L 639.0 427.0 L 640.1 423.0 L 638.5 410.6 L 628.6 395.4 L 615.0 377.7 L 604.3 364.5 L 592.7 350.9 L 580.4 339.8 L 576.8 337.7 L 576.8 337.7 L 565.6 331.1 L 552.4 327.0 L 538.8 320.8 L 521.5 317.6 L 505.4 315.5 L 489.8 312.2 L 475.8 308.9 L 449.4 302.3 L 434.1 298.1 L 427.7 300.1 L 425.5 299.4 L 412.8 298.2 L 400.0 295.3 L 385.2 293.0 L 381.4 296.3 L 365.8 292.8 L 339.4 292.4 L 324.6 290.4 L 314.9 291.3 L 309.6 300.0 L 304.0 300.3 L 295.4 302.3 L 278.9 307.7 L 263.2 311.8 L 247.6 314.7 L 230.7 318.4 L 208.5 324.1 L 189.1 329.9 L 167.5 338.0 L 152.0 342.7 L 132.7 348.9 L 118.2 349.2 L 105.1 351.8 L 93.2 357.4 L 76.3 362.4 L 64.7 362.4 L 48.6 361.8 L 31.4 368.9 L 17.8 372.9 L 10.0 373.9 L 10.0 382.3 z M 1125.6 427.0 L 1125.4 423.6 L 1125.4 417.1 L 1124.4 411.0 L 1117.8 403.5 L 1108.2 398.4 L 1088.0 395.9 L 1076.4 390.3 L 1069.4 386.3 L 1062.8 384.8 L 1053.2 382.3 L 1045.2 378.2 L 1040.1 373.2 L 1031.5 363.1 L 1027.0 357.0 L 1026.5 356.5 L 1021.5 353.0 L 1017.4 344.9 L 1016.4 338.4 L 1015.9 336.7 L 1014.9 333.3 L 1004.8 318.2 L 997.8 311.6 L 989.2 306.1 L 984.6 300.5 L 984.1 290.0 L 982.6 276.8 L 977.6 262.7 L 968.0 246.1 L 957.4 232.4 L 948.8 219.3 L 935.2 202.2 L 921.1 192.6 L 904.9 182.0 L 881.2 170.4 L 867.6 166.9 L 857.0 168.9 L 847.9 171.9 L 838.3 172.9 L 834.8 168.4 L 833.8 162.3 L 833.8 151.7 L 831.3 142.1 L 824.2 137.6 L 817.7 136.1 L 806.6 136.6 L 797.5 135.6 L 775.3 132.6 L 762.5 131.2 L 761.3 134.0 L 748.7 133.2 L 728.4 133.2 L 714.1 134.1 L 701.1 134.1 L 687.8 132.4 L 676.1 131.1 L 675.5 130.9 L 673.3 133.7 L 668.6 139.6 L 692.0 140.8 L 700.6 140.8 L 713.6 140.8 L 728.0 140.8 L 752.7 140.8 L 755.7 140.8 L 754.1 143.6 L 760.1 143.2 L 771.4 144.6 L 788.2 148.3 L 800.8 152.0 L 813.4 160.4 L 818.0 167.9 L 820.4 174.4 L 825.0 179.6 L 830.2 181.0 L 839.0 179.6 L 849.8 180.0 L 858.6 182.4 L 872.7 188.0 L 882.0 191.2 L 898.8 199.6 L 910.9 206.6 L 929.1 221.1 L 933.3 228.1 L 937.5 237.0 L 942.7 248.7 L 945.9 259.9 L 946.4 268.3 L 951.1 277.1 L 956.2 283.7 L 959.0 287.9 L 960.4 297.2 L 960.9 309.3 L 962.8 320.6 L 965.1 327.6 L 968.4 332.7 L 973.3 336.8 L 974.4 337.8 L 979.1 342.5 L 981.9 351.8 L 981.9 360.7 L 985.6 375.6 L 988.4 383.6 L 997.8 391.5 L 1003.8 394.8 L 1013.6 396.2 L 1020.6 399.0 L 1025.3 403.2 L 1027.6 410.2 L 1029.0 413.9 L 1034.6 418.6 L 1041.6 422.8 L 1047.7 424.7 L 1054.7 427.0 L 1125.6 427.0 z M 700.8 427.0 L 702.7 422.3 L 707.4 411.6 L 707.9 401.3 L 700.9 395.7 L 696.7 391.5 L 697.1 385.9 L 699.0 380.3 L 697.1 372.8 L 692.0 366.3 L 685.9 362.6 L 676.1 360.2 L 663.1 357.4 L 644.4 352.3 L 632.7 347.6 L 622.4 343.9 L 612.4 337.6 L 611.2 336.9 L 600.0 327.6 L 588.4 318.7 L 569.2 308.4 L 546.8 302.3 L 530.0 299.5 L 514.6 295.8 L 494.2 290.4 L 478.1 292.7 L 472.0 293.6 L 467.7 294.0 L 465.6 293.0 L 456.2 289.7 L 443.6 286.0 L 433.8 286.0 L 424.0 285.5 L 413.3 284.6 L 401.2 283.2 L 389.0 283.2 L 376.9 280.9 L 362.4 277.6 L 348.9 274.3 L 332.3 272.8 L 326.0 277.4 L 325.4 278.1 L 320.2 284.3 L 314.8 284.6 L 297.5 290.2 L 284.0 292.5 L 274.7 289.3 L 270.9 286.9 L 266.7 287.4 L 261.1 289.3 L 251.8 293.0 L 245.2 294.4 L 237.3 293.0 L 224.2 286.9 L 215.8 285.1 L 206.0 286.0 L 189.2 293.0 L 173.4 300.9 L 152.3 310.3 L 133.7 314.9 L 131.7 319.7 L 130.1 322.5 L 125.8 325.6 L 119.6 328.1 L 110.4 331.2 L 100.2 336.1 L 95.2 338.0 L 95.3 338.0 L 71.4 347.5 L 58.2 351.2 L 47.0 353.7 L 35.0 356.2 L 27.6 357.4 L 13.7 355.2 L 10.0 353.7 L 10.0 373.9 L 17.8 372.9 L 31.4 368.9 L 48.6 361.8 L 64.7 362.4 L 76.3 362.4 L 93.2 357.4 L 105.1 351.8 L 118.2 349.2 L 132.7 348.9 L 152.0 342.7 L 167.5 338.0 L 189.1 329.9 L 208.5 324.1 L 230.7 318.4 L 247.6 314.7 L 263.2 311.8 L 278.9 307.7 L 295.4 302.3 L 304.0 300.3 L 309.6 300.0 L 314.9 291.3 L 324.6 290.4 L 339.4 292.4 L 365.8 292.8 L 381.4 296.3 L 385.2 293.0 L 400.0 295.3 L 412.8 298.2 L 425.5 299.4 L 427.7 300.1 L 434.1 298.1 L 449.4 302.3 L 475.8 308.9 L 489.8 312.2 L 505.4 315.5 L 521.5 317.6 L 538.8 320.8 L 552.4 327.0 L 565.6 331.1 L 576.8 337.7 L 576.8 337.7 L 580.4 339.8 L 592.7 350.9 L 604.3 364.5 L 615.0 377.7 L 628.6 395.4 L 638.5 410.6 L 640.1 423.0 L 639.0 427.0 L 700.8 427.0 z M 497.8 427.0 L 498.0 421.6 L 496.6 416.1 L 503.8 407.8 L 503.3 400.3 L 501.2 396.0 L 500.4 392.2 L 499.2 390.2 L 496.2 387.7 L 497.8 385.3 L 499.6 383.2 L 499.2 381.2 L 498.2 377.9 L 497.1 374.9 L 495.3 370.9 L 494.2 367.2 L 493.4 363.8 L 493.0 362.9 L 489.8 363.5 L 468.6 367.3 L 467.9 366.6 L 466.4 365.2 L 461.7 362.0 L 456.8 360.3 L 449.7 359.4 L 442.8 357.4 L 436.2 355.1 L 417.7 349.9 L 398.0 343.8 L 388.4 341.8 L 377.7 340.7 L 369.2 340.2 L 361.2 340.2 L 353.1 339.9 L 354.4 338.0 L 359.3 331.0 L 353.9 330.7 L 349.9 330.7 L 345.9 330.9 L 340.9 328.8 L 333.5 338.0 L 333.4 338.0 L 331.5 338.3 L 330.0 338.7 L 322.7 339.3 L 316.9 340.2 L 304.0 343.9 L 294.0 345.2 L 285.3 347.3 L 276.7 350.0 L 267.6 354.1 L 260.4 356.9 L 251.2 359.4 L 243.2 361.7 L 233.1 366.2 L 226.1 370.2 L 218.6 372.7 L 208.9 374.8 L 196.3 378.0 L 186.6 381.6 L 175.4 386.5 L 159.3 394.7 L 148.3 400.8 L 137.7 406.4 L 137.3 406.7 L 132.5 409.8 L 127.1 413.4 L 120.1 419.8 L 113.4 426.3 L 112.5 427.0 L 497.8 427.0 z M 324.9 24.5 L 325.5 25.0 L 335.4 22.4 L 351.2 26.3 L 360.3 30.0 L 368.8 34.0 L 378.8 39.3 L 395.1 49.2 L 407.0 55.9 L 415.7 58.3 L 419.2 59.7 L 422.5 61.3 L 424.3 62.7 L 427.0 63.8 L 430.5 59.9 L 434.0 56.0 L 434.7 56.7 L 436.0 57.2 L 443.7 63.5 L 448.0 67.8 L 450.9 71.4 L 455.5 78.1 L 457.7 76.2 L 466.7 67.9 L 473.9 59.3 L 476.6 53.8 L 484.1 41.4 L 491.5 30.9 L 490.2 28.5 L 488.0 21.2 L 487.1 16.4 L 485.8 11.6 L 484.6 10.0 L 478.0 10.0 L 473.1 14.1 L 465.2 22.9 L 458.2 29.0 L 455.0 33.5 L 451.3 29.1 L 446.3 22.0 L 440.6 15.0 L 437.1 11.3 L 435.2 10.0 L 375.3 10.0 L 381.4 15.4 L 379.7 16.0 L 374.2 13.0 L 368.5 10.0 L 307.4 10.0 L 311.7 14.0 L 314.2 16.6 L 320.5 21.8 L 322.7 23.3 L 324.9 24.5 z M 868.2 332.9 L 878.3 327.4 L 885.4 321.3 L 889.9 314.8 L 894.5 306.7 L 897.5 297.1 L 902.0 291.6 L 905.6 288.5 L 908.1 285.5 L 909.1 275.9 L 903.0 258.8 L 895.0 247.7 L 888.9 241.1 L 878.3 232.5 L 862.2 226.0 L 840.5 221.9 L 823.3 220.4 L 805.2 217.4 L 794.1 213.9 L 782.5 207.3 L 774.4 202.3 L 767.3 194.7 L 752.7 188.1 L 741.1 182.1 L 731.0 176.5 L 726.5 174.3 L 721.9 179.0 L 711.2 175.7 L 698.1 172.6 L 688.1 168.0 L 672.6 164.5 L 662.9 163.7 L 652.9 162.2 L 648.5 161.8 L 652.1 157.8 L 642.7 157.4 L 615.0 158.4 L 596.8 155.3 L 580.7 152.3 L 563.0 147.7 L 561.1 149.1 L 536.0 145.8 L 529.0 145.3 L 521.5 145.1 L 508.0 143.6 L 498.2 141.7 L 484.2 138.8 L 474.4 136.0 L 476.4 133.7 L 473.5 132.9 L 469.3 132.0 L 460.9 130.5 L 452.0 129.6 L 442.2 127.3 L 430.6 125.0 L 413.3 120.3 L 408.6 118.5 L 399.1 126.9 L 408.1 133.0 L 414.2 135.9 L 419.2 137.3 L 423.3 138.2 L 428.0 138.6 L 442.6 139.2 L 448.4 139.7 L 454.0 140.5 L 458.5 140.7 L 467.1 141.6 L 469.7 142.3 L 466.1 148.6 L 479.6 152.5 L 490.8 155.3 L 506.8 157.3 L 533.4 160.8 L 552.6 164.5 L 571.8 165.8 L 597.2 169.5 L 616.0 172.4 L 631.8 172.4 L 641.0 174.5 L 647.7 174.5 L 658.1 176.2 L 682.7 181.6 L 690.7 184.5 L 700.3 187.0 L 712.0 189.4 L 714.4 186.9 L 719.6 189.6 L 742.0 198.5 L 753.3 202.8 L 763.3 209.4 L 772.2 217.1 L 782.7 223.3 L 799.7 229.9 L 815.2 233.8 L 831.9 237.3 L 839.2 240.0 L 847.4 246.2 L 851.2 250.0 L 861.7 257.4 L 869.4 264.4 L 877.6 274.4 L 879.9 284.9 L 879.5 294.2 L 876.8 301.5 L 870.2 313.2 L 864.4 316.6 L 844.3 325.2 L 829.9 327.9 L 817.2 331.0 L 798.6 332.9 L 783.5 331.4 L 772.6 326.7 L 749.4 317.8 L 730.4 312.8 L 711.0 307.3 L 694.4 301.9 L 682.0 298.4 L 665.4 294.6 L 651.3 289.0 L 635.2 285.0 L 620.5 282.0 L 606.4 280.5 L 593.8 275.9 L 580.7 274.4 L 562.5 272.9 L 554.0 270.9 L 538.8 266.8 L 523.7 264.3 L 509.1 260.8 L 492.9 259.3 L 474.6 257.9 L 469.5 257.8 L 457.2 256.0 L 449.5 254.7 L 440.1 253.1 L 433.4 251.6 L 429.2 250.5 L 422.6 248.5 L 413.9 246.2 L 410.8 245.6 L 410.7 245.2 L 403.3 242.4 L 390.2 249.5 L 400.5 254.4 L 409.1 256.7 L 417.2 258.4 L 441.4 262.3 L 456.1 264.9 L 471.7 269.8 L 479.5 272.7 L 491.3 275.6 L 499.8 277.3 L 507.7 279.1 L 515.9 281.5 L 535.7 285.5 L 553.2 284.1 L 559.3 285.7 L 561.7 285.9 L 564.4 286.4 L 594.1 292.4 L 599.9 293.4 L 613.0 293.6 L 631.6 295.6 L 650.8 301.6 L 664.9 306.7 L 680.1 311.2 L 695.2 317.8 L 711.9 323.3 L 727.0 327.9 L 745.7 332.4 L 756.0 337.4 L 757.3 338.0 L 767.3 341.0 L 773.4 345.5 L 777.9 348.0 L 788.5 349.6 L 806.7 348.6 L 829.9 344.5 L 848.6 340.0 L 857.1 337.5 L 857.9 337.1 L 868.2 332.9 z"
 style="fill:#9c0000; fill-opacity:0.1; fill-rule:evenodd; stroke:#ffa07a; stroke-opacity:1.0; stroke-width:0.8;"/>

<g stroke="black" stroke-width="3" fill="black">
  <circle cx="10" cy="10" r="0.1"/>
  <circle cx="1210" cy="10" r="0.1"/>
  <circle cx="1210" cy="426" r="0.1"/>
  <circle cx="10" cy="426" r="0.1"/>
  <circle cx="10" cy="10" r="0.1"/>
  <circle cx="101" cy="180" r="0.1"/>
  <circle cx="883" cy="216" r="0.1"/>
  <circle cx="476" cy="292" r="0.1"/>
  <circle cx="241" cy="30" r="0.1"/>
  <circle cx="551" cy="129" r="0.1"/>
  <circle cx="950" cy="351" r="0.1"/>
  <circle cx="780" cy="137" r="0.1"/>
  <circle cx="601" cy="317" r="0.1"/>
  <circle cx="906" cy="203" r="0.1"/>
  <circle cx="840" cy="165" r="0.1"/>
  <circle cx="663" cy="128" r="0.1"/>
  <circle cx="551" cy="108" r="0.1"/>
  <circle cx="482" cy="82" r="0.1"/>
  <circle cx="684" cy="363" r="0.1"/>
  <circle cx="732" cy="417" r="0.1"/>
  <circle cx="414" cy="296" r="0.1"/>
  <circle cx="532" cy="323" r="0.1"/>
  <circle cx="583" cy="133" r="0.1"/>
  <circle cx="482" cy="106" r="0.1"/>
  <circle cx="932" cy="195" r="0.1"/>
  <circle cx="641" cy="403" r="0.1"/>
  <circle cx="667" cy="123" r="0.1"/>
  <circle cx="900" cy="173" r="0.1"/>
  <circle cx="1060" cy="375" r="0.1"/>
  <circle cx="732" cy="131" r="0.1"/>
  <circle cx="580" cy="328" r="0.1"/>
  <circle cx="488" cy="309" r="0.1"/>
  <circle cx="305" cy="300" r="0.1"/>
  <circle cx="609" cy="291" r="0.1"/>
  <circle cx="622" cy="293" r="0.1"/>
  <circle cx="585" cy="286" r="0.1"/>
  <circle cx="721" cy="184" r="0.1"/>
  <circle cx="724" cy="187" r="0.1"/>
  <circle cx="748" cy="198" r="0.1"/>
  <circle cx="551" cy="129" r="0.1"/>
  <circle cx="603" cy="36" r="0.1"/>
  <circle cx="551" cy="129" r="0.1"/>
  <circle cx="663" cy="128" r="0.1"/>
  <circle cx="988" cy="298" r="0.1"/>
  <circle cx="19" cy="346" r="0.1"/>
  <circle cx="19" cy="346" r="0.1"/>
  <circle cx="551" cy="129" r="0.1"/>
  <circle cx="551" cy="129" r="0.1"/>
  <circle cx="526" cy="126" r="0.1"/>
  <circle cx="462" cy="98" r="0.1"/>
  <circle cx="551" cy="129" r="0.1"/>
  <circle cx="532" cy="323" r="0.1"/>
  <circle cx="258" cy="251" r="0.1"/>
  <circle cx="271" cy="307" r="0.1"/>
  <circle cx="242" cy="301" r="0.1"/>
  <circle cx="84" cy="331" r="0.1"/>
  <circle cx="64" cy="356" r="0.1"/>
  <circle cx="414" cy="256" r="0.1"/>
  <circle cx="486" cy="271" r="0.1"/>
</g>
</g>
</g>
</svg>
